<?xml version="1.0" encoding="UTF-8" standalone="no"?>
<!-- Created with Inkscape (http://www.inkscape.org/) -->

<svg
   version="1.1"
   id="svg1"
   width="5120"
   height="2768"
   viewBox="0 0 5120 2768"
   sodipodi:docname="background-temp4.png"
   xmlns:inkscape="http://www.inkscape.org/namespaces/inkscape"
   xmlns:sodipodi="http://sodipodi.sourceforge.net/DTD/sodipodi-0.dtd"
   xmlns="http://www.w3.org/2000/svg"
   xmlns:svg="http://www.w3.org/2000/svg">
  <defs
     id="defs1" />
  <sodipodi:namedview
     id="namedview1"
     pagecolor="#ffffff"
     bordercolor="#000000"
     borderopacity="0.25"
     inkscape:showpageshadow="2"
     inkscape:pageopacity="0.0"
     inkscape:pagecheckerboard="0"
     inkscape:deskcolor="#d1d1d1"
     showgrid="false" />
  <g
     inkscape:groupmode="layer"
     inkscape:label="Image"
     id="g1">
    <path
       style="display:inline;fill:#4c5252;fill-opacity:1"
       d="m 652,2756 v -12 h -28 -28 v -16 -16 h 30 30 v 16 16 h 2 2 v -14 -14 h 2 2 v -2 -2 h 72 72 v 16 16 h 4 4 v -16 -16 h 6 6 v 2 2 h 2 2 v 14 14 h 4 4 v -16 -16 h 4 4 v 2 2 h 2 2 v 14 14 h 2 2 v -16 -16 h 2 2 v 16 16 h 2 2 v -2 -2 h 2 2 v -10 -10 h -2 -2 v -2 -2 h 2 2 v -2 -2 h 18 18 v 2 2 h 2 2 v 14 14 h -16 -16 v 12 12 h -46 -46 v -12 -12 h -18 -18 v 12 12 h -48 -48 z m 1404,0 v -12 h 2 2 v 12 12 h -2 -2 z m 1184,0 v -12 h -10 -10 v -16 -16 h 18 18 v 16 16 h 2 2 v -16 -16 h 72 72 v -12 -12 h -212 -212 v -16 -16 h -2 -2 v -12 -12 h -100 -100 v -16 -16 h -50 -50 v 2 2 h -2 -2 v 14 14 h -70 -70 v 12 12 h 90 90 v -12 -12 h 4 4 v 28 28 h -28 -28 v 12 12 h 270 270 v 16 16 h -482 -482 v -16 -16 h -8 -8 v 16 16 h -6 -6 v -16 -16 h -42 -42 v -12 -12 h -98 -98 v -16 -16 h -132 -132 v -12 -12 h 158 158 v 12 12 h 112 112 v 16 16 h 16 16 v -16 -16 h 20 20 v 16 16 h 2 2 v -14 -14 h 2 2 v -2 -2 h 72 72 v -12 -12 h -6 -6 v -14 -14 h -2 -2 v -2 -2 h -2 -2 v 16 16 h -42 -42 v -2 -2 h -2 -2 v -2 -2 h 2 2 v -10 -10 h -2 -2 v -2 -2 h -6 -6 v 16 16 h -44 -44 v -16 -16 h 8 8 v -12 -12 h 156 156 v -16 -16 h 2 2 v 16 16 h 40 40 v -14 -14 h 2 2 v -2 -2 h 4 4 v 16 16 h 18 18 v -16 -16 h 2 2 v 16 16 h 16 16 v -16 -16 h 2 2 v 16 16 h 74 74 v -16 -16 h 2 2 v 14 14 h 2 2 v 2 2 h 24 24 v -16 -16 h 2 2 v 2 2 h 2 2 v 2 2 h -2 -2 v 10 10 h 2 2 v 2 2 h 52 52 v -16 -16 h 2 2 v 2 2 h 2 2 v 14 14 h 8 8 v -2 -2 h 2 2 v -14 -14 h 2 2 v 16 16 h 56 56 v 12 12 h -104 -104 v 16 16 h 78 78 v 12 12 h 24 24 v -12 -12 h 8 8 v 10 10 h -2 -2 v 2 2 h 34 34 v -12 -12 h -12 -12 v -14 -14 h -2 -2 v -2 -2 h -2 -2 v -2 -2 h 2 2 v -6 -6 h -2 -2 v -2 -2 h 2 2 v -2 -2 h 14 14 v -16 -16 h -10 -10 v -24 -24 h 2 2 v -2 -2 h 46 46 v 2 2 h 2 2 v -2 -2 h 2 2 v -14 -14 h -24 -24 v -12 -12 h 2 2 v -2 -2 h 40 40 v 2 2 h 2 2 v 12 12 h 2 2 v -14 -14 h 4 4 v 2 2 h 2 2 v 10 10 h -2 -2 v 2 2 h -4 -4 v 14 14 h 2 2 v 2 2 h 2 2 v -2 -2 h 6 6 v -26 -26 h 2 2 v -2 -2 h 38 38 v 2 2 h 2 2 v 2 2 h -2 -2 v 8 8 h 2 2 v 2 2 h 2 2 v -14 -14 h 6 6 v 2 2 h 2 2 v 12 12 h 2 2 v 68 68 h -10 -10 v -12 -12 h -2 -2 v 2 2 h -2 -2 v 6 6 h 2 2 v 4 4 h -18 -18 v 16 16 h 30 30 v 28 28 h -30 -30 v 12 12 h 48 48 v -12 -12 h -16 -16 v -28 -28 h 42 42 v 28 28 h 2 2 v -28 -28 h 12 12 v 28 28 h 4 4 v -28 -28 h 86 86 v 28 28 h -68 -68 v 2 2 h -2 -2 v 2 2 h 2 2 v 8 8 h 46 46 v 2 2 h 2 2 v 14 14 h 2 2 v -16 -16 h 86 86 v 16 16 h -2 -2 v 12 12 h -136 -136 v -4 -4 h 2 2 v -22 -22 h -2 -2 v -2 -2 h -42 -42 v -12 -12 h -8 -8 v 12 12 h 4 4 v 2 2 h 2 2 v 12 12 h -2 -2 v 2 2 h -12 -12 v -16 -16 h -2 -2 v 16 16 h -10 -10 v 12 12 h -52 -52 v -12 -12 h -8 -8 v 12 12 h -86 -86 z m -912,-54 v -10 h -2 -2 v -2 -2 h -6 -6 v 12 12 h 8 8 z m 1236,8 v -2 h -2 -2 v -10 -10 h -2 -2 v 12 12 h 4 4 z m -1096,-36 v -14 h 2 2 v -2 -2 h 26 26 v -12 -12 h -34 -34 v 2 2 h -2 -2 v 10 10 h 2 2 v 2 2 h 2 2 v 14 14 h 4 4 z m 960,-14 v -28 h -2 -2 v 28 28 h 2 2 z m 16,0 v -28 h -2 -2 v 28 28 h 2 2 z m -996,-16 v -12 h -4 -4 v 12 12 h 4 4 z m 956,-28 v -16 h -68 -68 v 2 2 h -2 -2 v 14 14 h 70 70 z m 24,-28 v -12 h -2 -2 v -16 -16 h 2 2 v -40 -40 h -2 -2 v 14 14 h -2 -2 v 2 2 h -2 -2 v -2 -2 h -4 -4 v 54 54 h 10 10 z m 16,-84 v -40 h -2 -2 v 40 40 h 2 2 z m 52,4 v -12 h -4 -4 v 10 10 h 2 2 v 2 2 h 2 2 z m 460,232 v -28 h 80 80 v 2 2 h 2 2 v 2 2 h -2 -2 v 10 10 h 2 2 v 2 2 h 2 2 v -16 -16 h 50 50 v 28 28 h -134 -134 z m 284,16 v -12 h 2 2 v 12 12 h -2 -2 z m 12,0 v -12 h 2 2 v -16 -16 h 28 28 v 16 16 h 18 18 v -16 -16 h 24 24 v 2 2 h 2 2 v 14 14 h 10 10 v -16 -16 h 20 20 v 16 16 h 52 52 v -16 -16 h 32 32 v 16 16 h 8 8 v -16 -16 h 10 10 v 16 16 h 8 8 v -16 -16 h 220 220 v 16 16 h -162 -162 v 12 12 H 4524 4252 Z M 916,2730 v -14 h 2 2 v -2 -2 h 18 18 v 16 16 h -20 -20 z m 92,-2 v -16 h 4 4 v 2 2 h 2 2 v 14 14 h -6 -6 z m 28,0 v -16 h 4 4 v 16 16 h -4 -4 z m 16,14 v -2 h -2 -2 v -12 -12 h 2 2 v -2 -2 h 8 8 v 2 2 h 2 2 v 12 12 h -2 -2 v 2 2 h -8 -8 z m 52,-12 v -14 h 2 2 v -2 -2 h 64 64 v 2 2 h 2 2 v 14 14 h -68 -68 z m 140,-2 v -16 h 18 18 v 16 16 h -18 -18 z m 100,2 v -14 h 2 2 v -2 -2 h 12 12 v 16 16 h -14 -14 z m 32,-2 v -16 h 46 46 v 16 16 h -46 -46 z m 272,0 v -16 h 32 32 v -12 -12 h 6 6 v 12 12 h 6 6 v 2 2 h 2 2 v 14 14 h -46 -46 z m 100,2 v -14 h 2 2 v -2 -2 h 22 22 v -12 -12 h 2 2 v 12 12 h 2 2 v -12 -12 h 4 4 v 12 12 h 6 6 v 16 16 h -38 -38 z m 1460,0 v -14 h 4 4 v 14 14 h -4 -4 z M 492,2700 v -12 h 4 4 v 12 12 h -4 -4 z m 72,0 v -12 h 2 2 v 2 2 h 2 2 v 2 2 h -2 -2 v 6 6 h 2 2 v 2 2 h -4 -4 z m 276,-28 v -16 h -28 -28 v -12 -12 h -10 -10 v -16 -16 h -10 -10 v 16 16 h 2 2 v 12 12 h -46 -46 v -12 -12 h -12 -12 v 12 12 h -6 -6 v -12 -12 h -42 -42 v -2 -2 h -2 -2 v -12 -12 h 2 2 v -2 -2 h 12 12 v -28 -28 h -28 -28 v -12 -12 h 2 2 v -28 -28 h -2 -2 v -12 -12 h -2 -2 v -2 -2 h -22 -22 v -14 -14 h -2 -2 v -14 -14 h -2 -2 v -14 -14 h -2 -2 v -2 -2 h -2 -2 v -2 -2 h 2 2 v -18 -18 h -2 -2 v -2 -2 h 2 2 v -2 -2 h 2 2 v -16 -16 h 2 2 v -12 -12 h 2 2 v 12 12 h 4 4 v -12 -12 h 14 14 v 12 12 h 8 8 v -12 -12 h 20 20 v 28 28 h -4 -4 v 12 12 h 4 4 v 42 42 h 8 8 v -82 -82 h 2 2 v 12 12 h 4 4 v -12 -12 h 2 2 v 28 28 h -4 -4 v 2 2 h -2 -2 v 10 10 h 12 12 v 2 2 h 2 2 v 12 12 h -8 -8 v 14 14 h 6 6 v 2 2 h 2 2 v 12 12 h 2 2 v 14 14 h 2 2 v 2 2 h 2 2 v -2 -2 h 2 2 v -14 -14 h 4 4 v -12 -12 h 2 2 v -2 -2 h 20 20 v 2 2 h 2 2 v 12 12 h 10 10 v -14 -14 h 16 16 v 2 2 h 2 2 v 12 12 h 6 6 v -2 -2 h 2 2 v -12 -12 h 14 14 v -14 -14 h -4 -4 v -14 -14 h 16 16 v 2 2 h 2 2 v 12 12 h 2 2 v -14 -14 h 6 6 v 2 2 h 2 2 v 12 12 h 4 4 v -12 -12 h 2 2 v -2 -2 h 8 8 v 12 12 h 2 2 v 2 2 h 110 110 v -2 -2 h 2 2 v -22 -22 h -2 -2 v -2 -2 H 882 696 v -14 -14 h 2 2 v -2 -2 h 2 2 v -12 -12 h 6 6 v 12 12 h 64 64 v -12 -12 h 14 14 v -14 -14 h -2 -2 v -2 -2 h -52 -52 v -12 -12 h 8 8 v -16 -16 h -58 -58 v 2 2 h -2 -2 v 14 14 h 8 8 v 12 12 h -28 -28 v -12 -12 h -12 -12 v 12 12 h -8 -8 v -12 -12 h -16 -16 v 12 12 h -66 -66 v 16 16 h -2 -2 v -16 -16 h -20 -20 v -12 -12 h -14 -14 v 12 12 h -8 -8 v -12 -12 h -4 -4 v 12 12 h -20 -20 v -12 -12 h -4 -4 v 12 12 h -6 -6 v -12 -12 h -6 -6 v 12 12 h -2 -2 v -12 -12 h -20 -20 v 12 12 h -4 -4 v -12 -12 h -4 -4 v 12 12 h -6 -6 v -28 -28 h 204 204 v -12 -12 h -64 -64 v -14 -14 h 2 2 v -2 -2 h 24 24 v -12 -12 H 346 184 v -2 -2 h -2 -2 v -12 -12 h -2 -2 v -14 -14 h 118 118 v 14 14 h 24 24 v 2 2 h 2 2 v -2 -2 h 2 2 v -14 -14 h 40 40 v 16 16 h -2 -2 v -2 -2 h -12 -12 v 14 14 h 42 42 v -12 -12 h 2 2 v -2 -2 h 12 12 v 2 2 h 2 2 v 12 12 h 22 22 v 12 12 h 4 4 v -12 -12 h 2 2 v -12 -12 h 2 2 v -2 -2 h 14 14 v 2 2 h 2 2 v 12 12 h -18 -18 v 12 12 h 20 20 v -12 -12 h 4 4 v 12 12 h 18 18 v -2 -2 h -2 -2 v -22 -22 h 2 2 v -2 -2 h 126 126 v 14 14 h -56 -56 v 12 12 h 48 48 v 2 2 h 2 2 v 2 2 h -2 -2 v 10 10 h 2 2 v 2 2 h 30 30 v -16 -16 h 134 134 v -12 -12 h -136 -136 v -2 -2 h -2 -2 v -2 -2 h 2 2 v -6 -6 h -2 -2 v -2 -2 h 2 2 v -2 -2 h 144 144 v 14 14 h -4 -4 v 12 12 h 152 152 v 16 16 h -18 -18 v 12 12 h 42 42 v -12 -12 h 78 78 v 12 12 h 4 4 v -12 -12 h 2 2 v 12 12 h 4 4 v -12 -12 h 4 4 v 12 12 h 2 2 v -12 -12 h 16 16 v 12 12 h 6 6 v -12 -12 h 4 4 v 12 12 h 14 14 v -12 -12 h 4 4 v 12 12 h 10 10 v 16 16 h -60 -60 v 10 10 h 2 2 v 2 2 h -60 -60 v -12 -12 h -96 -96 v -14 -14 h -2 -2 v -2 -2 h -182 -182 v 16 16 h 66 66 v 12 12 h -38 -38 v 16 16 h 6 6 v 2 2 h 2 2 v 8 8 h -2 -2 v 2 2 h 4 4 v -12 -12 h 2 2 v 12 12 h 2 2 v -12 -12 h 24 24 v 12 12 h 8 8 v -12 -12 h 20 20 v 12 12 h 8 8 v -12 -12 h 12 12 v 54 54 h -46 -46 v -14 -14 h -2 -2 v 14 14 h -74 -74 v 14 14 h -10 -10 v 14 14 h 24 24 v -2 -2 h 2 2 v -8 -8 h -2 -2 v -2 -2 h 2 2 v -2 -2 h 4 4 v 14 14 h 22 22 v -2 -2 h 2 2 v -12 -12 h 4 4 v 14 14 h 26 26 v 14 14 h 2 2 v -14 -14 h 238 238 v 14 14 h 40 40 v 14 14 h -40 -40 v -14 -14 h -142 -142 v 2 2 h -2 -2 v 12 12 h -62 -62 v -12 -12 h -4 -4 v 12 12 h -104 -104 v 14 14 h 44 44 v 2 2 h 2 2 v 12 12 h 72 72 v 12 12 h 10 10 v -12 -12 h 2 2 v 12 12 h 2 2 v -12 -12 h 4 4 v 12 12 h 26 26 v 2 2 h 2 2 v 26 26 h 6 6 v 16 16 h -6 -6 v 28 28 h -220 -220 v -16 -16 h 12 12 v -12 -12 h -14 -14 v 12 12 h -2 -2 v 16 16 h -12 -12 v -16 -16 h -4 -4 v -12 -12 h -78 -78 v 12 12 h 10 10 v 16 16 h -12 -12 v -16 -16 h -4 -4 v 2 2 h -2 -2 v 14 14 h -12 -12 z m 336,-28 v -12 h -2 -2 v 12 12 h 2 2 z m -56,-28 v -16 h -2 -2 v 16 16 h 2 2 z m 168,0 v -16 h -2 -2 v 16 16 h 2 2 z m 52,0 v -16 h -6 -6 v 2 2 h -2 -2 v 14 14 h 8 8 z m 124,0 v -16 h -6 -6 v 16 16 h 6 6 z m -892,-18 v -2 h -2 -2 v -10 -10 h 46 46 v 12 12 h 22 22 v -28 -28 h 2 2 v 16 16 h 2 2 v -28 -28 h 4 4 v 24 24 h -2 -2 v 2 2 h 2 2 v 2 2 h 40 40 v 12 12 h 58 58 v -12 -12 h 20 20 v 12 12 h 12 12 v -12 -12 h 32 32 v -16 -16 H 904 764 v -40 -40 h 56 56 v -14 -14 h -90 -90 v -14 -14 h -4 -4 v 14 14 h -24 -24 v 2 2 h -2 -2 v 12 12 h 28 28 v 14 14 h -2 -2 v 2 2 h -2 -2 v -2 -2 h -40 -40 v 2 2 h -2 -2 v 12 12 h 20 20 v 12 12 h -38 -38 v 28 28 h 4 4 z m 100,-66 v -12 h 2 2 v 12 12 h -2 -2 z m 16,0 v -12 h 2 2 v 12 12 h -2 -2 z m 44,0 v -12 h 2 2 v -2 -2 h 2 2 v -2 -2 h -2 -2 v -8 -8 h 4 4 v 24 24 h -6 -6 z m -32,-38 v -2 h -2 -2 v -14 -14 h 16 16 v 14 14 h -2 -2 v 2 2 h -2 -2 v -2 -2 h -8 -8 v 2 2 h -2 -2 z m 376,94 v -12 h 12 12 v -16 -16 h -14 -14 v 2 2 h -2 -2 v 2 2 h 2 2 v 12 12 h -2 -2 v 12 12 h 4 4 z m -16,-28 v -16 h -4 -4 v 2 2 h -2 -2 v 12 12 h 2 2 v 2 2 h 4 4 z m 272,0 v -16 h -4 -4 v 16 16 h 4 4 z m -476,-52 v -12 h -2 -2 v 12 12 h 2 2 z m 40,-2 v -14 h -4 -4 v 14 14 h 4 4 z m 108,2 v -12 h -2 -2 v 12 12 h 2 2 z m 112,0 v -12 h 2 2 v -44 -44 h 20 20 v -14 -14 h -20 -20 v -28 -28 h -2 -2 v 84 84 h -2 -2 v 14 14 h 2 2 z m -40,-86 v -14 h 14 14 v -14 -14 h -22 -22 v 14 14 h -4 -4 v -2 -2 h -2 -2 v -12 -12 h -24 -24 v 14 14 h 6 6 v 14 14 h 32 32 z m -612,-26 v -12 h -4 -4 v 12 12 h 4 4 z m 44,-2 v -14 h -6 -6 v 2 2 h -2 -2 v 12 12 h 8 8 z m 280,0 v -14 h -6 -6 v 2 2 h -2 -2 v 10 10 h 2 2 v 2 2 h 6 6 z m 20,0 v -14 h -6 -6 v 14 14 h 6 6 z m 16,0 v -14 h -2 -2 v 14 14 h 2 2 z m 24,12 v -2 h 2 2 v -10 -10 h -2 -2 v -2 -2 h -6 -6 v 14 14 h 6 6 z m 32,-12 v -14 h -6 -6 v 2 2 h -2 -2 v 10 10 h 2 2 v 2 2 h 6 6 z m 56,0 v -14 h -24 -24 v 14 14 h 24 24 z m 56,0 v -14 h -22 -22 v 14 14 h 22 22 z m -468,-82 v -12 h -2 -2 v 12 12 h 2 2 z m 376,-56 v -12 h -10 -10 v 12 12 h 10 10 z m 56,0 v -12 h -16 -16 v 2 2 h -2 -2 v 2 2 h 2 2 v 6 6 h -2 -2 v 2 2 h 18 18 z m 44,0 v -12 h -18 -18 v 12 12 h 18 18 z m 56,0 v -12 h 2 2 v 12 12 h 26 26 v -12 -12 h 2 2 v 12 12 h 6 6 v -8 -8 h -2 -2 v -2 -2 h 2 2 v -2 -2 h 2 2 v 12 12 h 18 18 v -12 -12 h 2 2 v 12 12 h 26 26 v -12 -12 h -10 -10 v -14 -14 h -2 -2 v -2 -2 h -40 -40 v -12 -12 h 26 26 v -16 -16 h -96 -96 v -12 -12 h -4 -4 v 12 12 h -4 -4 v -12 -12 h -6 -6 v 12 12 h -18 -18 v -12 -12 h -2 -2 v 12 12 h -58 -58 v 16 16 h 48 48 v 12 12 h 2 2 v -12 -12 h 58 58 v 12 12 h 2 2 v 2 2 h 2 2 v 14 14 h -8 -8 v 12 12 h 26 26 z m 20,-56 v -12 h 20 20 v 12 12 h -20 -20 z m 164,56 v -12 h -6 -6 v 12 12 h 6 6 z m 8,-28 v -16 h -2 -2 v 16 16 h 2 2 z M 864,2088 v -12 h -6 -6 v 12 12 h 6 6 z m 52,584 v -16 h 28 28 v 16 16 h -28 -28 z m 64,0 v -16 h 22 22 v 16 16 h -22 -22 z m 3104,0 v -16 h 16 16 v 2 2 h 2 2 v 14 14 h -18 -18 z m 196,-12 v -28 h -34 -34 v -14 -14 h -2 -2 v -2 -2 h -22 -22 v 16 16 h -10 -10 v -16 -16 h -2 -2 v 16 16 h -4 -4 v -16 -16 h -4 -4 v -12 -12 h 50 50 v 12 12 h 8 8 v -12 -12 h 36 36 v 12 12 h 18 18 v -12 -12 h 46 46 v 12 12 h 18 18 v -12 -12 h 8 8 v 12 12 h 2 2 v -12 -12 h 2 2 v 28 28 h -20 -20 v 12 12 h 14 14 v 2 2 h 2 2 v 14 14 h -106 -106 z m 216,12 v -16 h 2 2 v 16 16 h -2 -2 z m 12,0 v -16 h 64 64 v 2 2 h 2 2 v 14 14 h -66 -66 z m 136,0 v -16 h 76 76 v 16 16 h -76 -76 z M 492,2616 v -16 h 2 2 v 2 2 h 2 2 v 14 14 h -4 -4 z m 1636,0 v -16 h -66 -66 v -12 -12 h -8 -8 v 12 12 h -18 -18 v -12 -12 h -4 -4 v 12 12 h -22 -22 v -12 -12 h -2 -2 v 12 12 h -110 -110 v -28 -28 h 100 100 v -12 -12 h 56 56 v 12 12 h 78 78 v 28 28 h 14 14 v -28 -28 h 2 2 v 28 28 h 22 22 v 16 16 h -42 -42 z m 1764,0 v -16 h -58 -58 v -12 -12 h -2 -2 v 12 12 h -50 -50 v -4 -4 h 2 2 v -4 -4 h -2 -2 v -2 -2 h 2 2 v -18 -18 h -2 -2 v -4 -4 h 2 2 v -4 -4 h -2 -2 v -2 -2 h 2 2 v -2 -2 h 48 48 v 12 12 h 2 2 v -12 -12 h 170 170 v 2 2 h 2 2 v 2 2 h -2 -2 v 4 4 h 2 2 v 4 4 h -32 -32 v 16 16 h 30 30 v 2 2 h 2 2 v 2 2 h -2 -2 v 4 4 h 2 2 v 4 4 h -34 -34 v 16 16 h -2 -2 v -16 -16 h -2 -2 v 2 2 h -2 -2 v 14 14 h -2 -2 v -16 -16 h -52 -52 v 2 2 h -2 -2 v 14 14 h -10 -10 v -16 -16 h -4 -4 v 16 16 h -4 -4 z m 620,0 v -16 h -2 -2 v -12 -12 h 4 4 v 28 28 h -2 -2 z m 28,0 v -16 h -2 -2 v -12 -12 h 4 4 v 12 12 h 2 2 v 16 16 h -4 -4 z m 52,-12 v -28 h 8 8 v 12 12 h -4 -4 v 16 16 h -4 -4 z m 128,12 v -16 h 26 26 v 16 16 h -26 -26 z m 56,0 v -16 h 6 6 v -12 -12 h 2 2 v 12 12 h 2 2 v 16 16 h -10 -10 z M 476,2574 v -26 h 2 2 v -2 -2 h 2 2 v 28 28 h -4 -4 z m 2712,14 v -12 h 8 8 v 12 12 h -8 -8 z m 20,0 v -12 h 8 8 v 12 12 h -8 -8 z m 312,-56 v -68 h 2 2 v 14 14 h 4 4 v -28 -28 h 8 8 v 2 2 h 2 2 v 68 68 h -10 -10 v 12 12 h -6 -6 z m 12,0 v -12 h -4 -4 v 12 12 h 4 4 z m 988,56 v -12 h 6 6 v 12 12 h -6 -6 z m 48,0 v -12 h 2 2 v 12 12 h -2 -2 z m 8,0 v -12 h 4 4 v 12 12 h -4 -4 z m 48,0 v -12 h 4 4 v 10 10 h 2 2 v 2 2 h -6 -6 z m 24,0 v -12 h 4 4 v 12 12 h -4 -4 z m -1092,-52 v -40 h 2 2 v -2 -2 h 10 10 v 2 2 h 2 2 v 24 24 h 14 14 v 16 16 h -28 -28 z m 108,24 v -16 h 2 2 v 16 16 h -2 -2 z M 456,2532 v -12 h 4 4 v 12 12 h -4 -4 z m 1768,0 v -12 h 48 48 v 12 12 h -48 -48 z m 1900,0 v -12 h 50 50 v 12 12 h -50 -50 z m 132,0 v -12 h 28 28 v 12 12 h -28 -28 z m 92,0 v -12 h -10 -10 v -14 -14 h 20 20 v 14 14 h 6 6 v -14 -14 h 54 54 v 2 2 h 2 2 v -2 -2 h 2 2 v -42 -42 h 2 2 v 42 42 h 4 4 v -42 -42 h 6 6 v -14 -14 h -6 -6 v -28 -28 h 144 144 v 14 14 h -92 -92 v 14 14 h 2 2 v 2 2 h 2 2 v 12 12 h 10 10 v -14 -14 h 20 20 v 14 14 h 10 10 v -14 -14 h 20 20 v 14 14 h 8 8 v -12 -12 h 2 2 v -2 -2 h 16 16 v 14 14 h 2 2 v 14 14 h -142 -142 v 14 14 h 50 50 v 14 14 h 2 2 v 2 2 h 2 2 v -2 -2 h 12 12 v 2 2 h 2 2 v -16 -16 h 236 236 v 16 16 h -2 -2 v -2 -2 h -150 -150 v 2 2 h -2 -2 v 12 12 h -58 -58 v 12 12 h -4 -4 v -2 -2 h 2 2 v -10 -10 h -4 -4 v 12 12 h -4 -4 v -12 -12 h -44 -44 v 12 12 h -2 -2 v -12 -12 h -4 -4 v 12 12 h -10 -10 v -12 -12 h -6 -6 v 12 12 h -4 -4 v -12 -12 h -4 -4 v 12 12 h -4 -4 v -12 -12 h -2 -2 v 12 12 h -4 -4 v -12 -12 h -4 -4 v 12 12 h -2 -2 v -12 -12 h -2 -2 v 12 12 h -14 -14 v -12 -12 h -2 -2 v 12 12 h -22 -22 v -12 -12 h -6 -6 v 12 12 h -28 -28 z m 236,-138 v -14 h 12 12 v -14 -14 h -16 -16 v 14 14 h -4 -4 v 14 14 h 8 8 z m -932,100 v -2 h -2 -2 v -14 -14 h -2 -2 v 14 14 h -2 -2 v -28 -28 h 20 20 v -14 -14 h 12 12 v 14 14 h 8 8 v 28 28 h -2 -2 v 2 2 h -2 -2 v -2 -2 h -28 -28 v 2 2 h -2 -2 z m 128,0 v -2 h -2 -2 v -28 -28 h 8 8 v -14 -14 h 20 20 v 42 42 h -2 -2 v 2 2 h -2 -2 v -2 -2 h -20 -20 v 2 2 h -2 -2 z m 132,0 v -2 h -2 -2 v -14 -14 h -20 -20 v -14 -14 h -12 -12 v -14 -14 h 22 22 v 14 14 h 56 56 v 30 30 h -2 -2 v -2 -2 h -40 -40 v 2 2 h -2 -2 z m -1736,-16 v -14 h -20 -20 v -12 -12 h 2 2 v -2 -2 h 34 34 v 14 14 h -12 -12 v 14 14 h -4 -4 z m 912,0 v -14 h 2 2 v 14 14 h -2 -2 z m 540,-14 v -28 h 2 2 v 28 28 h -2 -2 z m 448,14 v -14 h 4 4 v 14 14 h -4 -4 z m -2116,-28 v -14 h 24 24 v 14 14 h -24 -24 z m 108,12 v -2 h -2 -2 v -10 -10 h 2 2 v -2 -2 h 14 14 v 14 14 h -14 -14 z m 216,-10 v -12 h 2 2 v -2 -2 h 54 54 v 14 14 h -56 -56 z m 120,-2 v -14 h 110 110 v 2 2 h 2 2 v 12 12 h -112 -112 z m 644,12 v -2 h -2 -2 v -10 -10 h 4 4 v 12 12 h -2 -2 z m 232,-10 v -12 h 4 4 v 10 10 h -2 -2 v 2 2 h -2 -2 z m 340,10 v -2 h -2 -2 v -10 -10 h 4 4 v 12 12 h -2 -2 z m 396,-40 v -14 h 4 4 v -2 -2 h 2 2 v -8 -8 h -2 -2 v -2 -2 h 2 2 v -2 -2 h 2 2 v 14 14 h 12 12 v 14 14 h -20 -20 z m 112,0 v -14 h 2 2 v -12 -12 h 4 4 v 12 12 h 12 12 v 14 14 h -18 -18 z m 48,0 v -14 h 6 6 v -12 -12 h 4 4 v 12 12 h 24 24 v -28 -28 h 6 6 v 14 14 h -2 -2 v 14 14 h 24 24 v -12 -12 h 4 4 v 12 12 h 10 10 v -12 -12 h -2 -2 v -2 -2 h -4 -4 v -14 -14 h 14 14 v -14 -14 h 26 26 v 2 2 h 2 2 v 12 12 h 4 4 v -12 -12 h 2 2 v -2 -2 h 24 24 v 14 14 h 2 2 v -12 -12 h 2 2 v -2 -2 h 10 10 v 2 2 h 2 2 v 26 26 h -4 -4 v 2 2 h -2 -2 v 12 12 h 6 6 v 14 14 h -10 -10 v -26 -26 h -2 -2 v -2 -2 h -24 -24 v 14 14 h 20 20 v 14 14 h -142 -142 z m 180,-16 v -2 h 2 2 v -2 -2 h -2 -2 v -6 -6 h 2 2 v -2 -2 h -2 -2 v -2 -2 h -8 -8 v 2 2 h -2 -2 v 10 10 h 2 2 v 2 2 h 8 8 z m 56,0 v -2 h 2 2 v -10 -10 h -2 -2 v -2 -2 h -24 -24 v 14 14 h 24 24 z M 8,2394 v -14 h 2 2 v 14 14 H 10 8 Z m 56,0 v -14 h 2 2 v 14 14 h -2 -2 z m 52,0 v -14 h 2 2 v 14 14 h -2 -2 z m 112,0 v -14 h 2 2 v 14 14 h -2 -2 z m 56,0 v -14 h 2 2 v 14 14 h -2 -2 z m 56,0 v -14 h 2 2 v 14 14 h -2 -2 z m 56,0 v -14 h 2 2 v 14 14 h -2 -2 z m 1460,0 v -14 h 2 2 v 14 14 h -2 -2 z m 2228,0 v -14 h 2 2 v 14 14 h -2 -2 z m 760,0 v -14 h 2 2 v 14 14 h -2 -2 z m 56,0 v -14 h 2 2 v 14 14 h -2 -2 z m 56,0 v -14 h 2 2 v 14 14 h -2 -2 z m 112,0 v -14 h 2 2 v 14 14 h -2 -2 z m -1804,-82 v -68 h 8 8 v 12 12 h 4 4 v 2 2 h 2 2 v 40 40 h 2 2 v 14 14 h -16 -16 z m 36,0 v -68 h 28 28 v 12 12 h 4 4 v -12 -12 h 24 24 v 12 12 h 4 4 v -12 -12 h 2 2 v 12 12 h 2 2 v -12 -12 h 6 6 v 12 12 h 2 2 v -12 -12 h 34 34 v -16 -16 h 2 2 v 16 16 h 2 2 v -16 -16 h 16 16 v 16 16 h 12 12 v 12 12 h 4 4 v -12 -12 h 10 10 v 40 40 h 2 2 v -40 -40 h 40 40 v 12 12 h 4 4 v -28 -28 h 12 12 v 16 16 h 12 12 v 12 12 h -14 -14 v 16 16 h 38 38 v 40 40 h -92 -92 v -14 -14 h -2 -2 v 14 14 h -88 -88 v -14 -14 h -2 -2 v 14 14 h -36 -36 v -14 -14 h -2 -2 v 14 14 h -24 -24 z m 276,26 v -14 h -2 -2 v -12 -12 h 2 2 v -16 -16 h -4 -4 v 42 42 h 4 4 z m 200,0 v -14 h -2 -2 v 14 14 h 2 2 z m -424,-26 v -12 h -4 -4 v 12 12 h 4 4 z m 296,-28 v -16 h -2 -2 v 16 16 h 2 2 z m 196,82 v -14 h 4 4 v 14 14 h -4 -4 z m 40,0 v -14 h 12 12 v 14 14 h -12 -12 z m 612,-14 v -28 h 2 2 v 28 28 h -2 -2 z M 620,2340 v -12 h 2 2 v -2 -2 h 26 26 v 14 14 h -28 -28 z m 68,-2 v -14 h 22 22 v 14 14 h -22 -22 z m 52,0 v -14 h 2 2 v 14 14 h -2 -2 z m 1024,0 v -14 h 12 12 v 2 2 h 2 2 v 10 10 h -2 -2 v 2 2 h -12 -12 z m 140,0 v -14 h 230 230 v 2 2 h 2 2 v 12 12 h -232 -232 z m 480,0 v -14 h 24 24 v 14 14 h -24 -24 z m 76,0 v -14 h -4 -4 v -12 -12 h 4 4 v 12 12 h 38 38 v 14 14 h -38 -38 z m -1024,-26 v -12 h 4 4 v 12 12 h -4 -4 z m 16,0 v -12 h 10 10 v 12 12 h -10 -10 z m 128,0 v -12 h 16 16 v 12 12 h -16 -16 z m 48,0 v -12 h 46 46 v 12 12 h -46 -46 z m 2284,2 v -10 h 2 2 v -2 -2 h 4 4 v 12 12 h -6 -6 z m 32,-30 v -16 h 2 2 v -12 -12 h -4 -4 v 12 12 h -10 -10 v -12 -12 h -2 -2 v 2 2 h -2 -2 v 8 8 h 2 2 v 2 2 h -4 -4 v -28 -28 h 14 14 v -12 -12 h -4 -4 v -16 -16 h -4 -4 v 16 16 h -4 -4 v -16 -16 h -18 -18 v 2 2 h -2 -2 v 14 14 h -14 -14 v 12 12 h -4 -4 v -12 -12 h -10 -10 v -16 -16 h -62 -62 v 2 2 h -2 -2 v 14 14 h -46 -46 v -14 -14 h 2 2 v -2 -2 h 38 38 v -8 -8 h -2 -2 v -2 -2 h 2 2 v -2 -2 h 220 220 v 2 2 h 2 2 v 2 2 h -2 -2 v 4 4 h 2 2 v 4 4 h -48 -48 v 2 2 h -2 -2 v 14 14 h -2 -2 v 12 12 h -2 -2 v -12 -12 h 2 2 v -16 -16 h -20 -20 v 16 16 h -2 -2 v 12 12 h 6 6 v -12 -12 h 8 8 v 28 28 h -14 -14 v 12 12 h 6 6 v 16 16 h -20 -20 z m 12,-98 v -26 h -2 -2 v -2 -2 h -8 -8 v 16 16 h 4 4 v 12 12 h 6 6 z m 12,-10 v -12 h 2 2 v -2 -2 h -2 -2 v -2 -2 h -4 -4 v 16 16 h 4 4 z m 152,108 v -16 h 2 2 v -12 -12 h 2 2 v 12 12 h 2 2 v -12 -12 h 4 4 v 28 28 h -10 -10 z m 28,0 v -16 h 16 16 v 16 16 h -16 -16 z M 8,2256 v -12 h 2 2 v 12 12 H 10 8 Z m 56,0 v -12 h 2 2 v 12 12 h -2 -2 z m 52,0 v -12 h 2 2 v 12 12 h -2 -2 z m 56,0 v -12 h 2 2 v 12 12 h -2 -2 z m 56,0 v -12 h -2 -2 v -16 -16 h 2 2 v 16 16 h 2 2 v 12 12 h -2 -2 z m 56,0 v -12 h 2 2 v 12 12 h -2 -2 z m 56,0 v -12 h 2 2 v 12 12 h -2 -2 z m 56,0 v -12 h 2 2 v 12 12 h -2 -2 z m 24,0 v -12 h 6 6 v 12 12 h -6 -6 z m 248,0 v -12 h 2 2 v 12 12 h -2 -2 z m 768,0 v -12 h 4 4 v 12 12 h -4 -4 z m 56,0 v -12 h 4 4 v 12 12 h -4 -4 z m 56,0 v -12 h 4 4 v 12 12 h -4 -4 z m 56,2 v -10 h 2 2 v -2 -2 h 2 2 v 12 12 h -4 -4 z m 56,8 v -2 h 2 2 v -10 -10 h 2 2 v 12 12 h -4 -4 z m 60,-10 v -12 h 2 2 v 12 12 h -2 -2 z m 56,0 v -12 h 2 2 v 12 12 h -2 -2 z m 56,0 v -12 h 2 2 v 12 12 h -2 -2 z m 56,-16 v -28 h 102 102 v 16 16 h -72 -72 v 12 12 h -2 -2 v -12 -12 h -26 -26 v 12 12 h -2 -2 z m 264,16 v -12 h 2 2 v 12 12 h -2 -2 z m 536,0 v -12 h 2 2 v 2 2 h 2 2 v 2 2 h -2 -2 v 6 6 h 2 2 v 2 2 h -4 -4 z m 56,0 v -12 h 4 4 v 12 12 h -4 -4 z m 164,0 v -12 h 2 2 v 12 12 h -2 -2 z m 112,0 v -12 h 2 2 v 12 12 h -2 -2 z m 56,0 v -12 h 2 2 v 2 2 h 2 2 v 2 2 h -2 -2 v 4 4 h 2 2 v 4 4 h -4 -4 z m 112,0 v -12 h 4 4 v 12 12 h -4 -4 z m 56,0 v -12 h 4 4 v 12 12 h -4 -4 z m 508,0 v -12 h 12 12 v -16 -16 h 28 28 v 16 16 h -10 -10 v 12 12 h -30 -30 z m 84,0 v -12 h 10 10 v 12 12 h -10 -10 z m 48,0 v -12 h 10 10 v 12 12 h -10 -10 z m 132,0 v -12 h 2 2 v 12 12 h -2 -2 z m 12,0 v -12 h 20 20 v 12 12 h -20 -20 z m 44,0 v -12 h 2 2 v 12 12 h -2 -2 z m 12,0 v -12 h 10 10 v 12 12 h -10 -10 z m 104,0 v -12 h 4 4 v 12 12 h -4 -4 z m 48,0 v -12 h 2 2 v 12 12 h -2 -2 z m 8,0 v -12 h 4 4 v 12 12 h -4 -4 z m 36,0 v -12 h 4 4 v 12 12 h -4 -4 z m 12,0 v -12 h 2 2 v 12 12 h -2 -2 z m 12,0 v -12 h 4 4 v 12 12 h -4 -4 z m 12,0 v -12 h 10 10 v 12 12 h -10 -10 z m 32,0 v -12 h 2 2 v 12 12 h -2 -2 z m 12,0 v -12 h 10 10 v 12 12 h -10 -10 z m 44,0 v -12 h 2 2 v 12 12 h -2 -2 z m 12,0 v -12 h 2 2 v 12 12 h -2 -2 z m 44,0 v -12 h 2 2 v 12 12 h -2 -2 z m 12,0 v -12 h 2 2 v 12 12 h -2 -2 z m 32,10 v -2 h 2 2 v -24 -24 h -4 -4 v 14 14 h -2 -2 v -16 -16 h -10 -10 v -12 -12 h 30 30 v -16 -16 h -14 -14 v -28 -28 h 12 12 v 16 16 h 10 10 v -16 -16 h 44 44 v 16 16 h 216 216 v 12 12 h -136 -136 v 2 2 h -2 -2 v 14 14 h 14 14 v 12 12 h 2 2 v -12 -12 h 12 12 v 12 12 h 4 4 v -12 -12 h 22 22 v 12 12 h 6 6 v -12 -12 h 102 102 v 28 28 h -166 -166 v 12 12 h -4 -4 v -8 -8 h 2 2 v -2 -2 h -2 -2 v -2 -2 h -2 -2 v 12 12 h -10 -10 v -12 -12 h -8 -8 v 12 12 h -2 -2 v -12 -12 h -30 -30 v 12 12 h -4 -4 v -12 -12 h -2 -2 v 12 12 h -12 -12 v -12 -12 h 4 4 v -16 -16 h -6 -6 v -12 -12 h -4 -4 v 28 28 h 2 2 v 10 10 h 2 2 v 2 2 h -4 -4 v -12 -12 h -2 -2 v 12 12 h -20 -20 v -12 -12 h -4 -4 v 12 12 h -2 -2 v -12 -12 h -2 -2 v 12 12 h -10 -10 v -12 -12 h -8 -8 v 12 12 h -2 -2 v -12 -12 h -4 -4 v 12 12 h -2 -2 v -12 -12 h -2 -2 v 12 12 h -4 -4 z m 120,-38 v -16 h -4 -4 v 2 2 h -2 -2 v 14 14 h 6 6 z m 44,-28 v -12 h -2 -2 v 12 12 h 2 2 z m -120,-28 v -16 h -2 -2 v 2 2 h -2 -2 v 2 2 h 2 2 v 8 8 h -2 -2 v 2 2 h 2 2 v 2 2 h 2 2 z m -2072,56 v -16 h 24 24 v -12 -12 h 4 4 v 12 12 h 6 6 v 16 16 h -34 -34 z M 144,2200 v -12 h 4 4 v 12 12 h -4 -4 z m 12,0 v -12 h 8 8 v 12 12 h -8 -8 z m 532,0 v -12 h 2 2 v 12 12 h -2 -2 z m 8,0 v -12 h 4 4 v 12 12 h -4 -4 z m 28,0 v -12 h 14 14 v 12 12 h -14 -14 z m 616,0 v -12 h 46 46 v 12 12 h -46 -46 z m 1084,0 v -12 h 2 2 v 12 12 h -2 -2 z m 136,0 v -12 h 4 4 v 12 12 h -4 -4 z m 20,0 v -12 h 4 4 v 12 12 h -4 -4 z m 52,0 v -12 h 6 6 v 12 12 h -6 -6 z m 48,0 v -12 h 4 4 v 12 12 h -4 -4 z m 20,0 v -12 h 2 2 v 12 12 h -2 -2 z m 24,0 v -12 h 2 2 v 12 12 h -2 -2 z m 24,0 v -12 h 4 4 v 12 12 h -4 -4 z m 12,0 v -12 h 2 2 v 12 12 h -2 -2 z m 16,0 v -12 h 4 4 v 12 12 h -4 -4 z m 460,0 v -12 h 4 4 v 12 12 h -4 -4 z m 16,0 v -12 h 6 6 v -16 -16 h -22 -22 v -12 -12 h 22 22 v -14 -14 h 2 2 v -2 -2 h 18 18 v 2 2 h 2 2 v 14 14 h 50 50 v 12 12 h -18 -18 v 16 16 h 18 18 v 12 12 h -50 -50 v -12 -12 h -4 -4 v 12 12 h -12 -12 v -12 -12 h -2 -2 v 12 12 h -10 -10 z m 76,-28 v -16 h -2 -2 v 2 2 h -2 -2 v 14 14 h 4 4 z m 100,28 v -12 h 20 20 v -16 -16 h -12 -12 v -12 -12 h 30 30 v -14 -14 h 2 2 v -2 -2 h 12 12 v 28 28 h 18 18 v -12 -12 h -14 -14 v -16 -16 h 16 16 v 44 44 h 2 2 v -14 -14 h 2 2 v -2 -2 h 6 6 v 16 16 h -8 -8 v 12 12 h -2 -2 v -12 -12 h -44 -44 v 12 12 h -28 -28 z m 92,-56 v -12 h -2 -2 v 12 12 h 2 2 z m 520,56 v -12 h 4 4 v 12 12 h -4 -4 z m 216,0 v -12 h 2 2 v 12 12 h -2 -2 z m 12,0 v -12 h 22 22 v 12 12 h -22 -22 z m 80,0 v -12 h 28 28 v 12 12 h -28 -28 z m 72,0 v -12 h 8 8 v -14 -14 h -2 -2 v -2 -2 h -42 -42 v -12 -12 h -18 -18 v 12 12 h -36 -36 v -28 -28 h 126 126 v 28 28 h -24 -24 v 16 16 h 4 4 v 12 12 h -4 -4 v -12 -12 h -2 -2 v 12 12 h -10 -10 z m -2412,-56 v -12 h 4 4 v 12 12 h -4 -4 z m 620,0 v -12 h 2 2 v 12 12 h -2 -2 z m 280,0 v -12 h 2 2 v 12 12 h -2 -2 z m 520,0 v -12 h 6 6 v 12 12 h -6 -6 z m 696,0 v -12 h 50 50 v 12 12 h -50 -50 z m 372,-16 v -28 h 2 2 v 28 28 h -2 -2 z m -2316,2 v -2 h -2 -2 v -12 -12 h 2 2 v -2 -2 h 2 2 v 16 16 h -2 -2 z m 56,-14 v -16 h 4 4 v 16 16 h -4 -4 z m -864,-54 v -14 h 2 2 v 14 14 h -2 -2 z m 12,12 v -2 h -2 -2 v -10 -10 h 2 2 v -2 -2 h 2 2 v 2 2 h 2 2 v 12 12 h -4 -4 z m 40,-10 v -12 h 2 2 v 12 12 h -2 -2 z m 592,0 v -12 h -2 -2 v -2 -2 h -66 -66 v 2 2 h -2 -2 v -2 -2 h -2 -2 v -14 -14 h 146 146 v -14 -14 h 26 26 v 2 2 h 2 2 v 12 12 h -8 -8 v 14 14 h -2 -2 v -14 -14 h -4 -4 v 14 14 h -2 -2 v -14 -14 h -2 -2 v 14 14 h -4 -4 v -14 -14 h -4 -4 v 14 14 h -2 -2 v 2 2 h -2 -2 v -2 -2 h -28 -28 v 2 2 h -2 -2 v 12 12 h -2 -2 v -12 -12 h -2 -2 v -2 -2 h -24 -24 v 2 2 h -2 -2 v 12 12 h -4 -4 v -2 -2 h -2 -2 v -8 -8 h 2 2 v -2 -2 h -2 -2 v -2 -2 h -2 -2 v 2 2 h -2 -2 v 12 12 h -2 -2 z m 1248,0 v -12 h 2 2 v -2 -2 h 18 18 v 2 2 h 2 2 v -2 -2 h 2 2 v -14 -14 h -74 -74 v 14 14 h -4 -4 v -2 -2 h 2 2 v -12 -12 h -114 -114 v 16 16 h -2 -2 v -2 -2 h -20 -20 v 2 2 h -2 -2 v -16 -16 h -24 -24 v 14 14 h -12 -12 v 2 2 h -2 -2 v -2 -2 h -2 -2 v -2 -2 h 2 2 v -12 -12 h -18 -18 v 14 14 h -4 -4 v -14 -14 h -2 -2 v 14 14 h -2 -2 v -14 -14 h -34 -34 v 14 14 h -2 -2 v -14 -14 h -8 -8 v 14 14 h -2 -2 v 2 2 h -2 -2 v -2 -2 h -18 -18 v 2 2 h -2 -2 v -2 -2 h -2 -2 v -14 -14 h -2 -2 v 14 14 h -2 -2 v -14 -14 h -4 -4 v 14 14 h -2 -2 v -14 -14 h -26 -26 v 16 16 h -2 -2 v -2 -2 h -2 -2 v -14 -14 h -126 -126 v -12 -12 h 2 2 v -2 -2 h 184 184 v 2 2 h 2 2 v 2 2 h -2 -2 v 8 8 h 2 2 v 2 2 h 4 4 v -12 -12 h 2 2 v -16 -16 h 4 4 v 14 14 h 194 194 v -14 -14 h 2 2 v 14 14 h 168 168 v 14 14 h -20 -20 v 14 14 h 32 32 v 2 2 h 2 2 v -2 -2 h 2 2 v -14 -14 h -6 -6 v -12 -12 h 2 2 v -2 -2 h 2 2 v 2 2 h 2 2 v 12 12 h 2 2 v -12 -12 h 2 2 v -2 -2 h 20 20 v 2 2 h 2 2 v 2 2 h -2 -2 v 6 6 h 2 2 v 2 2 h -2 -2 v 2 2 h -20 -20 v 14 14 h 2 2 v 2 2 h 2 2 v -2 -2 h 16 16 v 2 2 h 2 2 v 2 2 h -2 -2 v 6 6 h 2 2 v 2 2 h -2 -2 v 2 2 h -60 -60 v -12 -12 h -2 -2 v -16 -16 h -24 -24 v 14 14 h 2 2 v 14 14 h -28 -28 z m 232,-2 v -14 h 26 26 v 2 2 h 2 2 v 12 12 h -28 -28 z m 60,2 v -12 h 2 2 v -2 -2 h 4 4 v 2 2 h 2 2 v 12 12 h -8 -8 z m 96,0 v -12 h 2 2 v -2 -2 h 2 2 v -14 -14 h 6 6 v -2 -2 h 2 2 v -8 -8 h -2 -2 v -2 -2 h 2 2 v -18 -18 h -2 -2 v -2 -2 h 2 2 v -24 -24 h -4 -4 v -12 -12 h 2 2 v -18 -18 h 2 2 v -10 -10 h -2 -2 v -2 -2 h -12 -12 v -12 -12 h 20 20 v -16 -16 h -20 -20 v -12 -12 h 36 36 v 12 12 h -12 -12 v 16 16 h 24 24 v -14 -14 h 2 2 v -2 -2 h 14 14 v -12 -12 h 28 28 v 12 12 h 8 8 v 16 16 h 2 2 v -16 -16 h 2 2 v 2 2 h 2 2 v 10 10 h -2 -2 v 2 2 h 2 2 v 2 2 h 12 12 v -16 -16 h -8 -8 v -12 -12 h 94 94 v 12 12 h -78 -78 v 16 16 h 78 78 v 12 12 h 10 10 v -12 -12 h 18 18 v 12 12 h 2 2 v 2 2 h 2 2 v 2 2 h -2 -2 v 6 6 h 2 2 v 2 2 h -2 -2 v 2 2 h -218 -218 v 14 14 h 24 24 v 2 2 h 2 2 v 12 12 h 20 20 v 14 14 h 2 2 v -14 -14 h 18 18 v -14 -14 h 2 2 v 14 14 h 62 62 v 14 14 h 8 8 v -14 -14 h 66 66 v -14 -14 h 2 2 v 14 14 h 14 14 v 4 4 h -2 -2 v 20 20 h 2 2 v 2 2 h -2 -2 v 2 2 h -106 -106 v 14 14 h 106 106 v 2 2 h 2 2 v 2 2 h -2 -2 v 8 8 h 2 2 v 2 2 h 2 2 v -14 -14 h 50 50 v 14 14 h 16 16 v -14 -14 h 28 28 v 14 14 h 18 18 v -56 -56 h -8 -8 v -12 -12 h 2 2 v -2 -2 h 62 62 v 14 14 h 2 2 v -12 -12 h 2 2 v -2 -2 h 10 10 v 2 2 h 2 2 v 12 12 h 2 2 v -14 -14 h 2 2 v 14 14 h 2 2 v -2 -2 h 2 2 v -12 -12 h 64 64 v 2 2 h 2 2 v 12 12 h 2 2 v -14 -14 h 10 10 v 14 14 h 2 2 v -12 -12 h 2 2 v -2 -2 h 6 6 v 14 14 h 6 6 v -14 -14 h 6 6 v 2 2 h 2 2 v 10 10 h -2 -2 v 2 2 h -4 -4 v 14 14 h 210 210 v 14 14 h -210 -210 v 14 14 h -4 -4 v 2 2 h -2 -2 v 2 2 h 2 2 v 10 10 h 4 4 v 14 14 h 2 2 v 2 2 h 2 2 v -2 -2 h 2 2 v -14 -14 h 12 12 v -14 -14 h 126 126 v 2 2 h 2 2 v 12 12 h -20 -20 v 14 14 h -2 -2 v 2 2 h -2 -2 v -2 -2 h -2 -2 v 2 2 h -2 -2 v -16 -16 h -6 -6 v 16 16 h -2 -2 v -2 -2 h -68 -68 v 2 2 h -2 -2 v 8 8 h 2 2 v 2 2 h -2 -2 v 2 2 h -84 -84 v -14 -14 h -28 -28 v 14 14 h -94 -94 v -14 -14 h -4 -4 v 2 2 h -2 -2 v -2 -2 h -2 -2 v -14 -14 h -2 -2 v 14 14 h -2 -2 v 2 2 h -2 -2 v -2 -2 h -14 -14 v 2 2 h -2 -2 v -16 -16 h -4 -4 v 16 16 h -2 -2 v -2 -2 h -40 -40 v 2 2 h -2 -2 v -2 -2 h -2 -2 v -2 -2 h 2 2 v -12 -12 h -6 -6 v 14 14 h -2 -2 v 2 2 h -2 -2 v -2 -2 h -22 -22 v 2 2 h -2 -2 v 12 12 h -164 -164 v -14 -14 h -52 -52 v 2 2 h -2 -2 v 12 12 h -28 -28 z m 836,-14 v -2 h 2 2 v -14 -14 h 2 2 v -14 -14 h -2 -2 v 14 14 h -8 -8 v 14 14 h 4 4 v 2 2 h 2 2 z m 56,0 v -2 h 6 6 v -14 -14 h -10 -10 v 14 14 h 2 2 v 2 2 h 2 2 z m 224,0 v -2 h 6 6 v -14 -14 h -10 -10 v 14 14 h 2 2 v 2 2 h 2 2 z m -768,-16 v -14 h -2 -2 v 14 14 h 2 2 z m 420,-14 v -28 h 20 20 v 14 14 h 2 2 v -12 -12 h 2 2 v -2 -2 h 2 2 v -14 -14 h -26 -26 v -28 -28 h -8 -8 v 28 28 h -22 -22 v 14 14 h 22 22 v 14 14 h 6 6 v 14 14 h 2 2 z m 272,14 v -14 h -4 -4 v 14 14 h 4 4 z m -916,-28 v -14 h -2 -2 v 14 14 h 2 2 z m 732,0 v -14 h 4 4 v 14 14 h 2 2 v -12 -12 h 2 2 v -2 -2 h 14 14 v -14 -14 h -22 -22 v -12 -12 h -4 -4 v 40 40 h 4 4 z m 120,2 v -12 h 2 2 v -2 -2 h 2 2 v 2 2 h 2 2 v 12 12 h 2 2 v -12 -12 h 2 2 v -16 -16 h -14 -14 v 16 16 h 2 2 v 12 12 h 2 2 z m -740,-30 v -14 h -2 -2 v 14 14 h 2 2 z m 676,0 v -14 h -4 -4 v 14 14 h 4 4 z m -68,-28 v -14 h -2 -2 v 14 14 h 2 2 z m -604,-166 v -16 h -2 -2 v 16 16 h 2 2 z m 1116,280 v -12 h 2 2 v 12 12 h -2 -2 z m 8,0 v -12 h 4 4 v 10 10 h -2 -2 v 2 2 h -2 -2 z m 36,0 v -12 h 2 2 v 12 12 h -2 -2 z m 12,-2 v -14 h 12 12 v 14 14 h -12 -12 z m 40,0 v -14 h 2 2 v 14 14 h -2 -2 z M 84,2050 v -2 h -2 -2 v -14 -14 h 46 46 v 14 14 h -2 -2 v 2 2 h -2 -2 v -2 -2 H 126 88 v 2 2 h -2 -2 z m 3520,-14 v -16 h 20 20 v 14 14 h -2 -2 v 2 2 h -2 -2 v -2 -2 h -14 -14 v 2 2 h -2 -2 z M 584,2008 v -12 h 2 2 v -2 -2 h 24 24 v -14 -14 h 54 54 v 14 14 h 10 10 v -14 -14 h -2 -2 v -14 -14 h 4 4 v -14 -14 h -2 -2 v -28 -28 h -10 -10 v 28 28 h -2 -2 v -2 -2 h -2 -2 v -8 -8 h 2 2 v -2 -2 h -2 -2 v -2 -2 h -12 -12 v -14 -14 h 16 16 v -14 -14 h -84 -84 v 14 14 h 28 28 v 14 14 h 32 32 v 14 14 h -94 -94 v -14 -14 h -2 -2 v -14 -14 h -20 -20 v 28 28 h 10 10 v 14 14 h -28 -28 v -14 -14 h 14 14 v -28 -28 h -2 -2 v -14 -14 h 26 26 v -12 -12 h 2 2 v -16 -16 h -2 -2 v -12 -12 h 120 120 v 40 40 h 10 10 v -40 -40 h 176 176 v 12 12 h -18 -18 v 16 16 h 16 16 v 12 12 H 938 764 v 14 14 h 72 72 v 14 14 h 4 4 v -14 -14 h 78 78 v 14 14 h -2 -2 v 2 2 h -2 -2 v 12 12 h -2 -2 v 14 14 h -2 -2 v -14 -14 h -4 -4 v 14 14 h -2 -2 v -14 -14 h -2 -2 v 14 14 h -4 -4 v -2 -2 h 2 2 v -12 -12 h -8 -8 v 14 14 h -2 -2 v 2 2 h -2 -2 v 10 10 h 2 2 v 2 2 h 34 34 v 14 14 h 214 214 v 2 2 h 2 2 v 10 10 h -2 -2 v 2 2 h -218 -218 v -12 -12 h -4 -4 v 12 12 h -4 -4 v -12 -12 h -2 -2 v -2 -2 h -18 -18 v 14 14 h -20 -20 v -12 -12 h -4 -4 v 12 12 h -28 -28 v -14 -14 h -2 -2 v 14 14 H 748 584 Z m 240,-86 v -14 h -2 -2 v 14 14 h 2 2 z m 28,0 v -14 h -4 -4 v 14 14 h 4 4 z m 8,0 v -14 h -2 -2 v 14 14 h 2 2 z m 32,0 v -14 h -8 -8 v 14 14 h 8 8 z m 16,0 v -14 h -4 -4 v 14 14 h 4 4 z m 40,0 v -14 h -16 -16 v 14 14 h 16 16 z m 12,12 v -2 h -2 -2 v -10 -10 h 2 2 v -2 -2 h -4 -4 v 14 14 h 4 4 z m 32,-12 v -14 h -2 -2 v 14 14 h 2 2 z m -432,-84 v -14 h -4 -4 v 2 2 h -2 -2 v 10 10 h 2 2 v 2 2 h 4 4 z m -40,-52 v -14 h -4 -4 v 14 14 h 4 4 z m 556,-2 v -16 h -86 -86 v 2 2 h -2 -2 v 14 14 h 88 88 z m 592,222 v -14 h 16 16 v 2 2 h 2 2 v 12 12 h -18 -18 z m 576,2 v -12 h 2 2 v -2 -2 h 16 16 v 14 14 h -18 -18 z m 1252,-2 v -14 h 8 8 v 2 2 h 2 2 v 12 12 h -10 -10 z m 24,2 v -12 h 2 2 v -2 -2 h 12 12 v 2 2 h 2 2 v 12 12 h -16 -16 z m 36,0 v -12 h 2 2 v -2 -2 h 10 10 v 2 2 h 2 2 v 10 10 h -2 -2 v 2 2 h -12 -12 z M 432,1978 v -14 h 2 2 v 14 14 h -2 -2 z m 1088,0 v -14 h 2 2 v 14 14 h -2 -2 z m 2144,0 v -14 h 2 2 v 14 14 h -2 -2 z M 504,1950 v -14 h 2 2 v 14 14 h -2 -2 z m 16,0 v -14 h 8 8 v 2 2 h 2 2 v 12 12 h -10 -10 z m 24,0 v -14 h 2 2 v 14 14 h -2 -2 z m 20,2 v -12 h 2 2 v -2 -2 h 6 6 v 14 14 h -8 -8 z m 572,0 v -12 h 2 2 v -2 -2 h 4 4 v -14 -14 h 410 410 v 14 14 h -50 -50 v 14 14 h -62 -62 v -14 -14 h -42 -42 v 2 2 h -2 -2 v 12 12 h -12 -12 v -14 -14 h -22 -22 v 2 2 h -2 -2 v 12 12 h -26 -26 v -2 -2 h -2 -2 v -12 -12 h -18 -18 v 2 2 h -2 -2 v 12 12 h -176 -176 z m 2264,-2 v -14 h -6 -6 v -14 -14 h -2 -2 v 14 14 h -54 -54 v -14 -14 h -8 -8 v -14 -14 h -10 -10 v -28 -28 h 28 28 v -12 -12 h 46 46 v 12 12 h 10 10 v -12 -12 h 8 8 v 12 12 h -8 -8 v 70 70 h -4 -4 z m 4,-28 v -14 h -2 -2 v 14 14 h 2 2 z m 24,-40 v -82 h 6 6 v 54 54 h 2 2 v -54 -54 h 36 36 v 82 82 h -36 -36 v -14 -14 h -2 -2 v 14 14 h -6 -6 z m 68,40 v -14 h -4 -4 v 14 14 h 4 4 z m 0,-56 v -14 h -4 -4 v 14 14 h 4 4 z m 24,16 v -82 h 2 2 v 2 2 h 2 2 v 2 2 h -2 -2 v 20 20 h 2 2 v 2 2 h 2 2 v -54 -54 h 10 10 v 40 40 h 14 14 v 2 2 h 2 2 v 26 26 h -14 -14 v -14 -14 h -2 -2 v 14 14 h -10 -10 v 14 14 h 10 10 v 14 14 h 2 2 v -14 -14 h 14 14 v 26 26 h -2 -2 v 2 2 h -30 -30 z m 132,70 v -12 h 4 4 v 12 12 h -4 -4 z m 472,-16 v -28 h 40 40 v -12 -12 h 4 4 v 12 12 h 6 6 v 28 28 h -50 -50 z m 132,0 v -28 h 28 28 v 28 28 h -28 -28 z M 24,1922 v -14 h 74 74 v 14 14 H 98 24 Z m 152,0 v -14 h 8 8 v 14 14 h -8 -8 z m 128,0 v -14 h 56 56 v 14 14 h -56 -56 z m 792,0 v -14 h 4 4 v 14 14 h -4 -4 z m 904,0 v -14 h 4 4 v 14 14 h -4 -4 z m 452,0 v -14 h 4 4 v 14 14 h -4 -4 z m 968,-28 v -14 h 2 2 v 14 14 h -2 -2 z m 1308,12 v -2 h -2 -2 v -10 -10 h 2 2 v -2 -2 h 4 4 v 14 14 h -4 -4 z m -3600,-40 v -14 h 20 20 v 14 14 h -20 -20 z m 76,0 v -14 h 8 8 v 2 2 h -2 -2 v 10 10 h 2 2 v 2 2 h -8 -8 z m 20,0 v -14 h 2 2 v 14 14 h -2 -2 z m 8,0 v -14 h 16 16 v 14 14 h -16 -16 z m 256,0 v -14 h 6 6 v 14 14 h -6 -6 z m 840,-16 v -2 h -2 -2 v -10 -10 h 2 2 v -2 -2 h 2 2 v 14 14 h -2 -2 z m 376,-12 v -14 h 2 2 v 14 14 h -2 -2 z m 12,0 v -14 h 2 2 v 14 14 h -2 -2 z m 20,0 v -14 h 2 2 v 14 14 h -2 -2 z m 1388,0 v -14 h 2 2 v -12 -12 h 46 46 v 12 12 h 2 2 v 14 14 h -50 -50 z m 132,0 v -14 h 30 30 v 14 14 h -30 -30 z m 92,0 v -14 h 28 28 v 14 14 h -28 -28 z m 72,0 v -14 h 34 34 v 2 2 h 2 2 v 10 10 h -2 -2 v 2 2 h -34 -34 z m 76,-40 v -54 h 2 2 v 54 54 h -2 -2 z m 12,0 v -54 h 24 24 v -16 -16 h -2 -2 v -12 -12 h -2 -2 v 12 12 h -4 -4 v -12 -12 h -10 -10 v 12 12 h -6 -6 v -40 -40 h -4 -4 v 40 40 h -2 -2 v -12 -12 h -2 -2 v 12 12 h -16 -16 v -12 -12 h -2 -2 v 12 12 h -64 -64 v -12 -12 h -8 -8 v -16 -16 h -28 -28 v -24 -24 h 2 2 v -2 -2 h 2 2 v 2 2 h 2 2 v -2 -2 h 2 2 v -14 -14 h -264 -264 v 14 14 h 2 2 v 2 2 h 2 2 v -2 -2 h 8 8 v 2 2 h 2 2 v 12 12 h 2 2 v -12 -12 h 2 2 v -2 -2 h 78 78 v 2 2 h 2 2 v 12 12 h 8 8 v -14 -14 h 80 80 v 2 2 h 2 2 v 2 2 h -2 -2 v 18 18 h 2 2 v 4 4 h -224 -224 v -4 -4 h 2 2 v -64 -64 h -34 -34 v -28 -28 h 56 56 v 14 14 h 2 2 v -14 -14 h 6 6 v 14 14 h 2 2 v -14 -14 h 6 6 v 14 14 h 2 2 v -14 -14 h 2 2 v 14 14 h 6 6 v -14 -14 h 10 10 v 28 28 h 164 164 v 4 4 h -2 -2 v 10 10 h 4 4 v -14 -14 h 56 56 v 14 14 h 10 10 v -14 -14 h 30 30 v 14 14 h 10 10 v 12 12 h 2 2 v 2 2 h 4 4 v -28 -28 h 30 30 v 14 14 h 2 2 v 2 2 h 2 2 v -2 -2 h 2 2 v -14 -14 h 36 36 v 42 42 h 2 2 v -42 -42 h 2 2 v 42 42 h 4 4 v -42 -42 h 306 306 v 28 28 h -236 -236 v 14 14 h 2 2 v 2 2 h 2 2 v -2 -2 h 134 134 v 14 14 h -64 -64 v 12 12 h -20 -20 v 16 16 h 20 20 v 12 12 h -14 -14 v 16 16 h 16 16 v -2 -2 h 2 2 v -14 -14 h 2 2 v 16 16 h 156 156 v 12 12 h -160 -160 v 2 2 h -2 -2 v 14 14 h -50 -50 v 12 12 h 22 22 v 14 14 h -116 -116 z m 112,14 v -12 h -4 -4 v 12 12 h 4 4 z m 28,0 v -12 h -10 -10 v 12 12 h 10 10 z m -116,-28 v -16 h -2 -2 v 16 16 h 2 2 z m 56,-28 v -12 h -2 -2 v 12 12 h 2 2 z m 24,-28 v -16 h -4 -4 v 16 16 h 4 4 z m 16,0 v -16 h -4 -4 v 16 16 h 4 4 z m 12,0 v -16 h -2 -2 v 2 2 h -2 -2 v 12 12 h 2 2 v 2 2 h 2 2 z m 24,0 v -16 h -10 -10 v 16 16 h 10 10 z m 72,0 v -16 h -30 -30 v 16 16 h 30 30 z m 24,0 v -16 h -8 -8 v 2 2 h -2 -2 v 14 14 h 10 10 z m -296,-56 v -16 h -2 -2 v 16 16 h 2 2 z m 100,2 v -14 h -2 -2 v -2 -2 h -2 -2 v 16 16 h 4 4 z m 28,-2 v -16 h -2 -2 v 16 16 h 2 2 z m 28,2 v -14 h -2 -2 v -2 -2 h -2 -2 v 16 16 h 4 4 z m 132,-2 v -16 h -54 -54 v -12 -12 h -2 -2 v 12 12 h -8 -8 v 16 16 h 64 64 z m -420,-28 v -12 h 8 8 v -12 -12 h -2 -2 v -2 -2 h -2 -2 v 2 2 h -2 -2 v -2 -2 h -2 -2 v -14 -14 h -28 -28 v 14 14 h 2 2 v 2 2 h 2 2 v -2 -2 h 16 16 v 14 14 h -2 -2 v 12 12 h 10 10 z m 164,0 v -12 h -2 -2 v 12 12 h 2 2 z m -88,-26 v -14 h -2 -2 v -14 -14 h -8 -8 v 14 14 h 2 2 v 2 2 h 2 2 v -2 -2 h 4 4 v 14 14 h 2 2 z m 12,2 v -12 h -2 -2 v 12 12 h 2 2 z m 148,-14 v -2 h 2 2 v 2 2 h 2 2 v -16 -16 h -6 -6 v 16 16 h 2 2 z m -104,-16 v -14 h -2 -2 v 14 14 h 2 2 z m 56,0 v -14 h -2 -2 v 14 14 h 2 2 z m 24,0 v -14 h -4 -4 v 14 14 h 4 4 z m 12,0 v -14 h -2 -2 v 14 14 h 2 2 z m 32,0 v -14 h -2 -2 v 14 14 h 2 2 z m 12,0 v -14 h -4 -4 v 14 14 h 4 4 z m 28,0 v -14 h -2 -2 v 14 14 h 2 2 z m 16,0 v -14 h -2 -2 v 14 14 h 2 2 z m 104,248 v -14 h 16 16 v 2 2 h 2 2 v 2 2 h -2 -2 v 6 6 h 2 2 v 2 2 h -2 -2 v 2 2 h -16 -16 z m -3628,-26 v -12 h 38 38 v -16 -16 h -38 -38 v -12 -12 h 222 222 v 12 12 h -34 -34 v 2 2 h -2 -2 v 14 14 h -34 -34 v 12 12 h -152 -152 z m 1072,0 v -12 h 6 6 v 12 12 h -6 -6 z m 760,0 v -12 h -262 -262 v -16 -16 h 262 262 v 2 2 h 2 2 v 14 14 h 2 2 v 12 12 h -4 -4 z m 12,0 v -12 h 2 2 v 12 12 h -2 -2 z m 664,0 v -12 h 2 2 v 12 12 h -2 -2 z m 12,0 v -12 h 2 2 v 12 12 h -2 -2 z m -1836,-28 v -16 h 2 2 v 2 2 h 2 2 v 14 14 h -4 -4 z m 600,0 v -16 h 8 8 v 2 2 h 2 2 v 14 14 h -10 -10 z m 692,2 v -14 h 2 2 v -2 -2 h 4 4 v 16 16 h -6 -6 z m 1236,-2 v -16 h -130 -130 v -12 -12 h 210 210 v 28 28 h -80 -80 z M 472,1756 v -12 h 4 4 v 12 12 h -4 -4 z m 2804,0 v -12 h 4 4 v 2 2 h 2 2 v 10 10 h -6 -6 z m 20,0 v -12 h 46 46 v 12 12 h -46 -46 z m 112,0 v -12 h 8 8 v 12 12 h -8 -8 z m 20,0 v -12 h 6 6 v 12 12 h -6 -6 z m 16,0 v -12 h 36 36 v 12 12 h -36 -36 z m 76,0 v -12 h 2 2 v 2 2 h 2 2 v 2 2 h -2 -2 v 6 6 h 2 2 v 2 2 h -4 -4 z m 76,0 v -12 h 4 4 v 12 12 h -4 -4 z m 32,0 v -12 h 2 2 v 12 12 h -2 -2 z m 12,0 v -12 h 2 2 v 12 12 h -2 -2 z m -472,-28 v -16 h -106 -106 v -12 -12 h 126 126 v 12 12 h -12 -12 v 16 16 h -8 -8 z M 84,1700 v -12 H 72 60 v -28 -28 h 2 2 v -12 -12 h -2 -2 v -2 -2 H 42 24 v 2 2 h -2 -2 v -16 -16 h 76 76 v 68 68 H 128 84 Z m 92,-56 v -68 h 16 16 v 14 14 h 32 32 v 2 2 h 2 2 v -2 -2 h 2 2 v -14 -14 h 14 14 v 14 14 h 2 2 v 2 2 h 2 2 v -2 -2 h 62 62 v 2 2 h 2 2 v -2 -2 h 2 2 v -14 -14 h 18 18 v 14 14 h 2 2 v -14 -14 h 12 12 v 14 14 h 2 2 v 2 2 h 2 2 v -2 -2 h 4 4 v 2 2 h 2 2 v -2 -2 h 2 2 v -2 -2 h -2 -2 v -12 -12 h 30 30 v 16 16 h 2 2 v -2 -2 h 2 2 v 2 2 h 2 2 v -16 -16 h 16 16 v 14 14 h 2 2 v 2 2 h 2 2 v -2 -2 h 56 56 v 2 2 h 2 2 v -2 -2 h 2 2 v -14 -14 h 18 18 v 14 14 h 4 4 v 12 12 h 2 2 v 2 2 h 6 6 v -12 -12 h 2 2 v -2 -2 h 2 2 v -14 -14 h 48 48 v 14 14 h 4 4 v 14 14 h 4 4 v -12 -12 h 2 2 v 12 12 h 2 2 v -12 -12 h 4 4 v 8 8 h -2 -2 v 2 2 h 2 2 v 2 2 h 26 26 v 24 24 h 2 2 v 2 2 h -2 -2 v 2 2 H 850 688 v -28 -28 h -26 -26 v 28 28 h -16 -16 v -28 -28 h -4 -4 v 12 12 h -2 -2 v 14 14 h -2 -2 v 2 2 h -12 -12 v -28 -28 h -8 -8 v 28 28 h -64 -64 v 12 12 h -6 -6 v -12 -12 h -34 -34 v 12 12 h -82 -82 z m 668,-26 v -14 h -4 -4 v 14 14 h 4 4 z m 16,0 v -14 h -4 -4 v 14 14 h 4 4 z m 16,2 v -12 h -2 -2 v 12 12 h 2 2 z m 24,-2 v -14 h -8 -8 v 2 2 h -2 -2 v 12 12 h 10 10 z m 28,0 v -14 h -10 -10 v 14 14 h 10 10 z m 276,82 v -12 h -52 -52 v -16 -16 h 166 166 v 16 16 h 192 192 v -16 -16 h 32 32 v 2 2 h 2 2 v 2 2 h -2 -2 v 10 10 h 2 2 v 2 2 h 104 104 v 12 12 h -376 -376 v -12 -12 h -2 -2 v 12 12 h -66 -66 z m 1224,0 v -12 h 260 260 v 12 12 h -260 -260 z m 848,0 v -12 h 2 2 v 12 12 h -2 -2 z m 20,0 v -12 h 46 46 v 12 12 h -46 -46 z m 112,0 v -12 h 8 8 v 12 12 h -8 -8 z m 20,0 v -12 h 6 6 v 12 12 h -6 -6 z m 16,0 v -12 h 36 36 v 12 12 h -36 -36 z m 76,0 v -12 h 2 2 v 2 2 h 2 2 v 2 2 h -2 -2 v 6 6 h 2 2 v 2 2 h -4 -4 z m 12,0 v -12 h 10 10 v 12 12 h -10 -10 z m 96,0 v -12 h 2 2 v 12 12 h -2 -2 z m 12,0 v -12 h 2 2 v 12 12 h -2 -2 z m 8,0 v -12 h 36 36 v 12 12 h -36 -36 z m 128,0 v -12 h 28 28 v 12 12 h -28 -28 z m 132,0 v -12 h 2 2 v 2 2 h 2 2 v 2 2 h -2 -2 v 4 4 h 2 2 v 4 4 h -4 -4 z m 12,0 v -12 h 20 20 v 12 12 h -20 -20 z m 44,0 v -12 h 16 16 v 12 12 h -16 -16 z m -2888,-56 v -12 h 2 2 v 12 12 h -2 -2 z m 1220,0 v -12 h 2 2 v 12 12 h -2 -2 z m 16,0 v -12 h 2 2 v 12 12 h -2 -2 z m 80,0 v -12 h 2 2 v 12 12 h -2 -2 z m 872,0 v -12 h 20 20 v -2 -2 h 2 2 v -10 -10 h -2 -2 v -2 -2 h -18 -18 v 2 2 h -2 -2 v -2 -2 h -2 -2 v -26 -26 h 2 2 v -16 -16 h -2 -2 v -12 -12 h 2 2 v -16 -16 h 42 42 v 14 14 h -2 -2 v 14 14 h 4 4 v -28 -28 h 36 36 v 28 28 h -8 -8 v 42 42 h 2 2 v 26 26 h -74 -74 z m 36,-138 v -14 h -4 -4 v 14 14 h 4 4 z m 128,54 v -96 h 88 88 v 26 26 h -2 -2 v 2 2 h -2 -2 v 14 14 h -24 -24 v -14 -14 h -10 -10 v 28 28 h -2 -2 v 12 12 h 2 2 v 2 2 h -4 -4 v -42 -42 h -2 -2 v 68 68 h -36 -36 v -12 -12 h -2 -2 v 12 12 h -6 -6 z m 68,60 v -12 h -4 -4 v 10 10 h 2 2 v 2 2 h 2 2 z m -52,-58 v -42 h -2 -2 v 42 42 h 2 2 z m 64,-44 v -2 h 2 2 v -10 -10 h -2 -2 v -2 -2 h -6 -6 v 14 14 h 6 6 z m 68,-12 v -14 h -8 -8 v 2 2 h -2 -2 v 12 12 h 10 10 z m -56,138 v -12 h 2 2 v 10 10 h 2 2 v 2 2 h -4 -4 z m 12,0 v -12 h 28 28 v 12 12 h -28 -28 z m 592,-14 v -26 h 50 50 v 26 26 h -50 -50 z m -2264,-12 v -14 h -12 -12 v 2 2 h -2 -2 v -16 -16 h 18 18 v 28 28 h -4 -4 z m 1760,12 v -2 h -2 -2 v -10 -10 h 2 2 v -2 -2 h 2 2 v 2 2 h 2 2 v 12 12 h -4 -4 z m 1312,-12 v -14 h 84 84 v 2 2 h 2 2 v 12 12 h -86 -86 z m 176,2 v -12 h 2 2 v 12 12 h -2 -2 z M 964,1592 v -16 h 6 6 v -2 -2 h 2 2 v -12 -12 h 16 16 v 2 2 h 2 2 v 2 2 h -2 -2 v 8 8 h 2 2 v 2 2 h 22 22 v 14 14 h -2 -2 v 2 2 h -2 -2 v -2 -2 h -42 -42 v 2 2 h -2 -2 z m 112,-14 v -30 h 178 178 v 28 28 h -2 -2 v 2 2 h -2 -2 v -2 -2 h -170 -170 v 2 2 h -4 -4 z m 604,28 v -2 h -2 -2 v -14 -14 h 16 16 v 14 14 h -2 -2 v 2 2 h -2 -2 v -2 -2 h -8 -8 v 2 2 h -2 -2 z m 68,0 v -2 h -2 -2 v -14 -14 h 28 28 v 14 14 h -2 -2 v 2 2 h -2 -2 v -2 -2 h -20 -20 v 2 2 h -2 -2 z m 1784,-14 v -16 h 26 26 v 14 14 h -2 -2 v 2 2 h -2 -2 v -2 -2 h -18 -18 v 2 2 h -4 -4 z m -712,-28 v -12 h 4 4 v 12 12 h -4 -4 z M 568,1550 v -2 h -2 -2 v -14 -14 h 6 6 v 14 14 h -2 -2 v 2 2 h -2 -2 z M 60,1534 v -14 h 56 56 v 14 14 H 116 60 Z m 116,0 v -14 h 70 70 v 14 14 h -70 -70 z m 180,0 v -14 h 14 14 v 14 14 h -14 -14 z m 36,0 v -14 h 12 12 v 14 14 h -12 -12 z m 28,0 v -14 h 4 4 v 14 14 h -4 -4 z m 52,0 v -14 h 4 4 v 14 14 h -4 -4 z m 20,0 v -14 h 10 10 v 14 14 h -10 -10 z m 28,0 v -14 h 4 4 v 14 14 h -4 -4 z m 20,0 v -14 h 2 2 v 14 14 h -2 -2 z m 64,0 v -14 h 4 4 v 14 14 h -4 -4 z m 92,0 v -14 h -38 -38 v -28 -28 h 28 28 v 14 14 h 10 10 v 14 14 h 4 4 v -14 -14 h 50 50 v -14 -14 h -18 -18 v -14 -14 h -40 -40 v -14 -14 h 46 46 v -14 -14 h 2 2 v 14 14 h 2 2 v -12 -12 h 2 2 v -2 -2 h 4 4 v -12 -12 h -56 -56 v -16 -16 h -6 -6 v 16 16 h -14 -14 v 12 12 h -4 -4 v -12 -12 h -10 -10 v 26 26 h 2 2 v -12 -12 h 2 2 v -2 -2 h 2 2 v 14 14 h 22 22 v 14 14 h -28 -28 v -14 -14 h -54 -54 v 14 14 h 18 18 v 28 28 h -54 -54 v -2 -2 h 2 2 v -24 -24 h -2 -2 v -2 -2 H 308 176 v -14 -14 h 2 2 v -14 -14 h -2 -2 v -28 -28 h 62 62 v 16 16 h -56 -56 v 12 12 h 6 6 v 2 2 h 2 2 v 12 12 h 82 82 v -2 -2 h 2 2 v -40 -40 h 88 88 v 16 16 h 8 8 v -16 -16 h 6 6 v -12 -12 h -34 -34 v -16 -16 h 102 102 v 16 16 h 2 2 v -2 -2 h 2 2 v -10 -10 h -2 -2 v -2 -2 h 2 2 v -2 -2 h 104 104 v -12 -12 h -82 -82 v -16 -16 h -10 -10 v 16 16 h -72 -72 v -16 -16 h -2 -2 v 16 16 h -8 -8 v -16 -16 h 8 8 v -12 -12 h 4 4 v 12 12 h 4 4 v -12 -12 h 4 4 v 12 12 h 4 4 v -12 -12 h 28 28 v 10 10 h -2 -2 v 2 2 h 12 12 v -12 -12 h 16 16 v -2 -2 h 2 2 v -2 -2 h -2 -2 v -8 -8 h 2 2 v -2 -2 h -2 -2 v -2 -2 h -16 -16 v -12 -12 h 78 78 v 12 12 h -32 -32 v 16 16 h 68 68 v -28 -28 h 16 16 v 12 12 h -12 -12 v 2 2 h -2 -2 v 14 14 h 28 28 v -16 -16 h -6 -6 v -12 -12 h 44 44 v 12 12 h -34 -34 v 16 16 h 2 2 v 12 12 h 2 2 v -12 -12 h 4 4 v 12 12 h 16 16 v -12 -12 h 10 10 v 12 12 h 4 4 v -12 -12 h 42 42 v -16 -16 h -42 -42 v -12 -12 h 22 22 v -12 -12 h 4 4 v 12 12 h 12 12 v -14 -14 h 2 2 v 14 14 h 28 28 v -12 -12 h 4 4 v 12 12 h 148 148 v 12 12 h -118 -118 v 16 16 h 2 2 v 12 12 h -64 -64 v 16 16 h 64 64 v 12 12 h 2 2 v -12 -12 h 120 120 v 28 28 h -162 -162 v 12 12 h -16 -16 v -12 -12 h -20 -20 v 12 12 h -28 -28 v -12 -12 h -4 -4 v 12 12 h -44 -44 v -12 -12 h -4 -4 v 12 12 h -2 -2 v 16 16 h 22 22 v 40 40 h 32 32 v -40 -40 h 104 104 v 12 12 h 30 30 v -12 -12 h 44 44 v 54 54 h -50 -50 v 14 14 h 96 96 v 14 14 h -224 -224 v -14 -14 h 78 78 v -14 -14 h -108 -108 v 14 14 h 26 26 v 14 14 h -44 -44 v -12 -12 h -4 -4 v 12 12 h -28 -28 v -14 -14 h -2 -2 v 14 14 h -64 -64 v 14 14 h -2 -2 v -14 -14 h -4 -4 v 14 14 h -12 -12 v -14 -14 h -2 -2 v 14 14 h -4 -4 v -12 -12 h 2 2 v -2 -2 h -12 -12 v 14 14 h -10 -10 z m 252,-56 v -14 h -14 -14 v 2 2 h 2 2 v 10 10 h -2 -2 v 2 2 h 14 14 z m 60,0 v -14 h -12 -12 v 14 14 h 12 12 z m 236,0 v -14 h -2 -2 v 14 14 h 2 2 z m 20,0 v -14 h -8 -8 v 14 14 h 8 8 z m 24,0 v -14 h -10 -10 v 14 14 h 10 10 z m 36,0 v -14 h -14 -14 v 14 14 h 14 14 z m -860,-56 v -14 h -8 -8 v 14 14 h 8 8 z m 392,0 v -14 h 4 4 v -14 -14 h -32 -32 v 14 14 h 26 26 v 14 14 h 2 2 z m 116,0 v -14 h -2 -2 v 14 14 h 2 2 z m 16,0 v -14 h -2 -2 v 14 14 h 2 2 z m 104,0 v -14 h -4 -4 v 14 14 h 4 4 z m 28,0 v -14 h -8 -8 v 14 14 h 8 8 z m 20,0 v -14 h -6 -6 v 14 14 h 6 6 z m 56,0 v -14 h -20 -20 v 14 14 h 20 20 z m 56,0 v -14 h -24 -24 v 14 14 h 24 24 z m 24,0 v -14 h -6 -6 v 14 14 h 6 6 z m 20,0 v -14 h -6 -6 v 14 14 h 6 6 z m 16,0 v -14 h -6 -6 v 14 14 h 6 6 z m 28,0 v -14 h -2 -2 v 14 14 h 2 2 z m -720,-82 v -16 h -12 -12 v 16 16 h 12 12 z m 296,-12 v -28 h -2 -2 v 12 12 h -2 -2 v 16 16 h 4 4 z m -256,-16 v -12 h -2 -2 v 12 12 h 2 2 z m 488,-82 v -14 h -2 -2 v -2 -2 h -24 -24 v 16 16 h 26 26 z m -384,-58 v -16 h -10 -10 v 16 16 h 10 10 z m 24,0 v -16 h -10 -10 v 16 16 h 10 10 z m 408,0 v -16 h -14 -14 v 16 16 h 14 14 z m 16,0 v -16 h -4 -4 v 16 16 h 4 4 z m 60,14 v -2 h 2 2 v -12 -12 h -2 -2 v -2 -2 h -24 -24 v 16 16 h 24 24 z m 516,348 v -14 h -60 -60 v -14 -14 h 60 60 v 2 2 h 2 2 v 12 12 h 2 2 v 14 14 h -4 -4 z m 788,0 v -14 h 2 2 v 14 14 h -2 -2 z m -576,-28 v -14 h 72 72 v 2 2 h 2 2 v 12 12 h -74 -74 z m 164,0 v -14 h 2 2 v 14 14 h -2 -2 z m 24,0 v -14 h 70 70 v 2 2 h 2 2 v 12 12 h -72 -72 z m 916,12 v -2 h -2 -2 v -10 -10 h 2 2 v -2 -2 h 2 2 v 14 14 h -2 -2 z m 60,-12 v -14 h 2 2 v 14 14 h -2 -2 z M 564,1464 v -28 h 8 8 v 28 28 h -8 -8 z m 20,14 v -14 h 16 16 v 14 14 h -16 -16 z m 1972,0 v -14 h 2 2 v 14 14 h -2 -2 z m 16,0 v -14 h 4 4 v 14 14 h -4 -4 z m 16,0 v -14 h 2 2 v 14 14 h -2 -2 z m 24,0 v -14 h 2 2 v 14 14 h -2 -2 z m 184,0 v -14 h 2 2 v 14 14 h -2 -2 z m 148,0 v -14 h 6 6 v 14 14 h -6 -6 z m 92,0 v -14 h 2 2 v 14 14 h -2 -2 z m 1132,0 v -14 h 4 4 v 14 14 h -4 -4 z m 20,0 v -14 h 4 4 v 14 14 h -4 -4 z m 36,0 v -14 h 6 6 v 14 14 h -6 -6 z m 92,-28 v -42 h 28 28 v 14 14 h 14 14 v -14 -14 h 2 2 v 14 14 h 38 38 v -14 -14 h 2 2 v 14 14 h 4 4 v -14 -14 h 2 2 v 14 14 h 2 2 v 28 28 h -2 -2 v -28 -28 h -2 -2 v 28 28 h -14 -14 v -14 -14 h -2 -2 v 14 14 h -72 -72 z m 192,14 v -28 h 4 4 v -14 -14 h 2 2 v 14 14 h 8 8 v -14 -14 h 4 4 v 12 12 h -2 -2 v 2 2 h 4 4 v -14 -14 h 24 24 v -2 -2 h 2 2 v -12 -12 h 98 98 v 42 42 h -104 -104 v 14 14 h -8 -8 v -14 -14 h -2 -2 v 14 14 h -30 -30 z m -2028,-14 v -14 h 4 4 v 14 14 h -4 -4 z m 1500,0 v -14 h 2 2 v -14 -14 h 4 4 v 14 14 h 6 6 v 2 2 h 2 2 v 2 2 h -2 -2 v 6 6 h 2 2 v 2 2 h -2 -2 v 2 2 h -12 -12 z m -2404,-28 v -14 h -2 -2 v -12 -12 h -2 -2 v -2 -2 h -52 -52 v -12 -12 h 202 202 v 12 12 h 2 2 v 14 14 h 10 10 v 14 14 h -20 -20 v -14 -14 h 6 6 v -2 -2 h 2 2 v -12 -12 h -68 -68 v 2 2 h -2 -2 v 12 12 h -2 -2 v 14 14 h -2 -2 v -14 -14 h -4 -4 v 14 14 h -6 -6 v -26 -26 h -2 -2 v -2 -2 h -2 -2 v 28 28 h -4 -4 v -14 -14 h -4 -4 v 14 14 h -4 -4 v -14 -14 h -18 -18 v 14 14 h -28 -28 z m 132,-28 v -14 h -2 -2 v 14 14 h 2 2 z m 16,0 v -14 h -2 -2 v 14 14 h 2 2 z m 8,28 v -14 h 4 4 v 14 14 h -4 -4 z m 100,0 v -14 h 2 2 v 14 14 h -2 -2 z m 8,0 v -14 h 4 4 v 14 14 h -4 -4 z m 56,0 v -14 h 6 6 v -14 -14 h 2 2 v 28 28 h -8 -8 z m 84,0 v -14 h 14 14 v 14 14 h -14 -14 z m 36,0 v -14 h 2 2 v 14 14 h -2 -2 z m 8,0 v -14 h 150 150 v 14 14 h -150 -150 z m 308,0 v -14 h 26 26 v 14 14 h -26 -26 z m 56,0 v -14 h 22 22 v 14 14 h -22 -22 z m 184,0 v -14 h 2 2 v 14 14 h -2 -2 z m 692,-26 v -40 h 4 4 v 12 12 h 2 2 v -12 -12 h 26 26 v 24 24 h -2 -2 v 2 2 h -2 -2 v 14 14 h -28 -28 z m 104,26 v -14 h 2 2 v -14 -14 h 54 54 v 14 14 h 36 36 v -14 -14 h 2 2 v 14 14 h 8 8 v 14 14 h -102 -102 z m 220,0 v -14 h 20 20 v 14 14 h -20 -20 z m 72,0 v -14 h 4 4 v 14 14 h -4 -4 z m 20,0 v -14 h 40 40 v 14 14 h -40 -40 z m 84,0 v -14 h 4 4 v 14 14 h -4 -4 z m 52,0 v -14 h 32 32 v 14 14 h -32 -32 z m 92,0 v -14 h 4 4 v 14 14 h -4 -4 z m -576,-28 v -14 h 14 14 v 2 2 h 2 2 v 10 10 h -2 -2 v 2 2 h -14 -14 z m -900,-26 v -12 h 6 6 v 12 12 h -6 -6 z m -500,-28 v -16 h -168 -168 v -12 -12 h -8 -8 v -16 -16 h 8 8 v 16 16 h 4 4 v -2 -2 h 2 2 v -2 -2 h -2 -2 v -10 -10 h 2 2 v -2 -2 h 2 2 v 16 16 h 4 4 v -14 -14 h 2 2 v -2 -2 h 82 82 v 2 2 h 2 2 v 10 10 h -2 -2 v 2 2 h 2 2 v 2 2 h 38 38 v -16 -16 h 2 2 v 16 16 h 2 2 v -16 -16 h 2 2 v 2 2 h 2 2 v 2 2 h -2 -2 v 10 10 h 2 2 v 2 2 h 2 2 v -16 -16 h 4 4 v 16 16 h 6 6 v -16 -16 h 2 2 v 16 16 h 44 44 v 12 12 h -30 -30 v 16 16 h -4 -4 z m 84,0 v -16 h 2 2 v 16 16 h -2 -2 z m 1468,0 v -16 h -8 -8 v -12 -12 h -20 -20 v -44 -44 h -2 -2 v -12 -12 h 2 2 v -16 -16 h 8 8 v -12 -12 h -40 -40 v 12 12 h 20 20 v 28 28 h 2 2 v -28 -28 h 6 6 v 28 28 h -6 -6 v 28 28 h 2 2 v 16 16 h -46 -46 v 12 12 h -30 -30 v -12 -12 h -10 -10 v -16 -16 h 2 2 v -12 -12 h 6 6 v -16 -16 h -6 -6 v -28 -28 h -2 -2 v -12 -12 h 8 8 v 12 12 h 4 4 v -12 -12 h 4 4 v 12 12 h 4 4 v -12 -12 h -2 -2 v -28 -28 h -4 -4 v -2 -2 h -2 -2 v -10 -10 h 2 2 v -2 -2 h 10 10 v -2 -2 h -2 -2 v -12 -12 h 14 14 v 14 14 h 68 68 v -14 -14 h 28 28 v 14 14 h 4 4 v -14 -14 h 30 30 v 56 56 h 6 6 v 40 40 h -6 -6 v -28 -28 h -2 -2 v 28 28 h -6 -6 v -40 -40 h -2 -2 v 40 40 h -10 -10 v 16 16 h 10 10 v 12 12 h -8 -8 v 16 16 h -8 -8 v -28 -28 h 2 2 v -16 -16 h -4 -4 v 44 44 h -10 -10 v -44 -44 h -2 -2 v 2 2 h -2 -2 v 38 38 h 2 2 v 2 2 h -2 -2 v 2 2 h -2 -2 v 12 12 h 44 44 v 16 16 h -44 -44 z m -184,-156 v -28 h 4 4 v -12 -12 h -4 -4 v 12 12 h -10 -10 v 28 28 h 10 10 z m 52,0 v -28 h -2 -2 v 28 28 h 2 2 z m 108,0 v -28 h 2 2 v -12 -12 h -8 -8 v 12 12 h 2 2 v 2 2 h 2 2 v 26 26 h 2 2 z m 36,-12 v -16 h -2 -2 v 2 2 h -2 -2 v 12 12 h 2 2 v 2 2 h 2 2 z m 16,0 v -16 h -4 -4 v 16 16 h 4 4 z m 8,-28 v -12 h -2 -2 v 12 12 h 2 2 z m 28,0 v -12 h -4 -4 v 12 12 h 4 4 z m -256,-38 v -2 h 2 2 v -14 -14 h -6 -6 v 4 4 h 2 2 v 8 8 h -2 -2 v 2 2 h 2 2 v 2 2 h 2 2 z m 80,-16 v -14 h -4 -4 v 14 14 h 4 4 z m 64,0 v -14 h -4 -4 v 14 14 h 4 4 z m 32,0 v -14 h -4 -4 v 14 14 h 4 4 z m 120,238 v -28 h 2 2 v 12 12 h 2 2 v -12 -12 h 18 18 v 12 12 h 2 2 v 2 2 h 2 2 v 14 14 h -26 -26 z m 100,14 v -14 h 2 2 v -2 -2 h 26 26 v 16 16 h -28 -28 z m 128,-2 v -16 h 8 8 v -12 -12 h 10 10 v -16 -16 h -38 -38 v -28 -28 h -2 -2 v 28 28 h -50 -50 v -4 -4 h 2 2 v -22 -22 h -2 -2 v -2 -2 h -2 -2 v -28 -28 h 4 4 v -12 -12 h -28 -28 v 12 12 h 2 2 v 28 28 h -4 -4 v -28 -28 h -2 -2 v -12 -12 h -12 -12 v -56 -56 h 306 306 v 28 28 h -2 -2 v 16 16 h 2 2 v 12 12 h 4 4 v -2 -2 h 2 2 v -54 -54 h 174 174 v -2 -2 h 2 2 v -10 -10 h -2 -2 v -2 -2 h -20 -20 v -14 -14 h -2 -2 v 14 14 h -4 -4 v -28 -28 h 20 20 v -12 -12 h -20 -20 v -14 -14 h -2 -2 v -2 -2 h -22 -22 v -12 -12 h -8 -8 v 12 12 h -10 -10 v -12 -12 h -56 -56 v 28 28 h 2 2 v 12 12 h 6 6 v -12 -12 h 2 2 v -16 -16 h 34 34 v 16 16 h 4 4 v 12 12 h 40 40 v 2 2 h 2 2 v 26 26 h -14 -14 v -14 -14 h -2 -2 v 14 14 h -92 -92 v -40 -40 h -2 -2 v -16 -16 h -2 -2 v 2 2 h -2 -2 v 2 2 h 2 2 v 10 10 h -2 -2 v 2 2 h -12 -12 v -16 -16 h 8 8 v -12 -12 h -8 -8 v -16 -16 h 8 8 v -12 -12 h -16 -16 v 40 40 h -2 -2 v 16 16 h -2 -2 v -16 -16 h -28 -28 v -12 -12 h -4 -4 v 12 12 h -14 -14 v -40 -40 h 46 46 v -16 -16 h -2 -2 v -12 -12 h 2 2 v -28 -28 h -46 -46 v -28 -28 h 50 50 v 56 56 h 16 16 v -16 -16 h -8 -8 v -12 -12 h 8 8 v -28 -28 h 28 28 v 56 56 h 18 18 v -28 -28 h -2 -2 v -14 -14 h 2 2 v -14 -14 h 10 10 v -12 -12 h 2 2 v -2 -2 h 58 58 v 2 2 h 2 2 v 12 12 h 2 2 v -14 -14 h 2 2 v 14 14 h 2 2 v -2 -2 h 2 2 v -12 -12 h 306 306 v 14 14 h -14 -14 v 14 14 h -2 -2 v -14 -14 h -2 -2 v 14 14 h -28 -28 v -14 -14 h -6 -6 v 14 14 h -2 -2 v -14 -14 h -26 -26 v 14 14 h -150 -150 v -14 -14 h -2 -2 v 14 14 h -2 -2 v 2 2 h -2 -2 v -2 -2 h -12 -12 v 14 14 h -16 -16 v -14 -14 h -2 -2 v 26 26 h 36 36 v -12 -12 h 4 4 v 12 12 h 50 50 v -12 -12 h 2 2 v 12 12 h 30 30 v -12 -12 h 136 136 v 12 12 h 2 2 v -12 -12 h 6 6 v 28 28 h -190 -190 v 12 12 h 28 28 v 16 16 h 92 92 v 12 12 h -90 -90 v 2 2 h -2 -2 v 14 14 h 14 14 v 12 12 h 2 2 v -12 -12 h 12 12 v 12 12 h 4 4 v -12 -12 h 22 22 v 12 12 h 6 6 v -12 -12 h 94 94 v 12 12 h 2 2 v -12 -12 h 6 6 v 28 28 h -154 -154 v 12 12 h -6 -6 v 2 2 h -2 -2 v 12 12 h -4 -4 v 14 14 h -4 -4 v -12 -12 h 2 2 v -2 -2 h -4 -4 v 14 14 h -4 -4 v -14 -14 h -4 -4 v 14 14 h -2 -2 v -14 -14 h -4 -4 v 14 14 h -4 -4 v -14 -14 h -12 -12 v 14 14 h -2 -2 v -14 -14 h -4 -4 v 14 14 h -6 -6 v -14 -14 h -4 -4 v 14 14 h -4 -4 v -14 -14 h -4 -4 v 14 14 h -12 -12 v -14 -14 h -6 -6 v 12 12 h 2 2 v 2 2 h -8 -8 v 14 14 h 74 74 v 14 14 h 8 8 v -2 -2 h -2 -2 v -12 -12 h 72 72 v 42 42 h -12 -12 v -14 -14 h -2 -2 v 14 14 h -40 -40 v -14 -14 h -38 -38 v 14 14 h -12 -12 v -14 -14 h -6 -6 v 14 14 h -50 -50 v 14 14 h -16 -16 v 12 12 h 46 46 v 16 16 h -16 -16 v 12 12 h -4 -4 v 16 16 h 72 72 v -14 -14 h -2 -2 v -2 -2 h -4 -4 v -28 -28 h -8 -8 v 16 16 h 4 4 v 12 12 h -16 -16 v -12 -12 h -8 -8 v -16 -16 h 8 8 v -12 -12 h 110 110 v -42 -42 h 18 18 v -14 -14 h 2 2 v 14 14 h -2 -2 v 14 14 h 6 6 v -2 -2 h 2 2 v -2 -2 h -2 -2 v -8 -8 h 2 2 v -2 -2 h 2 2 v 14 14 h 10 10 v 14 14 h 8 8 v -14 -14 h 26 26 v 14 14 h -20 -20 v 2 2 h -2 -2 v 12 12 h 42 42 v 12 12 h -24 -24 v 16 16 h 6 6 v 12 12 h -2 -2 v 2 2 h -2 -2 v 2 2 h 2 2 v 10 10 h -2 -2 v 2 2 h -6 -6 v -16 -16 h -6 -6 v 16 16 h -4 -4 v -14 -14 h -2 -2 v -2 -2 h -2 -2 v 16 16 h -104 -104 v -16 -16 h -2 -2 v 16 16 h -14 -14 v 28 28 h -6 -6 v 2 2 h -2 -2 v 10 10 h 8 8 v 16 16 h -124 -124 v -16 -16 h -98 -98 v -12 -12 h -2 -2 v -44 -44 h -4 -4 v 14 14 h -2 -2 v 2 2 h -2 -2 v -16 -16 h 2 2 v -26 -26 h 2 2 v -2 -2 h 4 4 v -12 -12 h -18 -18 v 28 28 h 2 2 v -16 -16 h 4 4 v 16 16 h 2 2 v 12 12 h -10 -10 v -12 -12 h -2 -2 v -14 -14 h -2 -2 v -2 -2 h -2 -2 v 16 16 h 2 2 v 12 12 h -24 -24 v -12 -12 h -4 -4 v 12 12 h -8 -8 v 2 2 h -2 -2 v 26 26 h 6 6 v 16 16 h -18 -18 v 12 12 h -2 -2 v -12 -12 h -36 -36 v -44 -44 h -2 -2 v 2 2 h -2 -2 v 38 38 h 2 2 v 2 2 h -2 -2 v 2 2 h -112 -112 v 12 12 h 56 56 v 2 2 h 2 2 v 2 2 h -2 -2 v 12 12 h -94 -94 z m 748,-28 v -12 h -8 -8 v 12 12 h 8 8 z m -140,-28 v -16 h -2 -2 v -12 -12 h -6 -6 v 12 12 h -2 -2 v 16 16 h 10 10 z m 48,2 v -14 h -2 -2 v -2 -2 h -2 -2 v -28 -28 h 14 14 v 28 28 h -2 -2 v 2 2 h -2 -2 v 12 12 h 2 2 v 2 2 h 4 4 v -44 -44 h 2 2 v 44 44 h 4 4 v -84 -84 h -8 -8 v 28 28 h -10 -10 v -16 -16 h -4 -4 v 28 28 h -2 -2 v 44 44 h 6 6 z m 24,-114 v -16 h 2 2 v 16 16 h -2 -2 z m -540,84 v -12 h -4 -4 v 12 12 h 4 4 z m 204,0 v -12 h -4 -4 v 12 12 h 4 4 z m -340,-14 v -2 h 2 2 v -12 -12 h -2 -2 v -2 -2 h -4 -4 v 16 16 h 4 4 z m 108,-14 v -16 h -2 -2 v 16 16 h 2 2 z m 16,0 v -16 h -2 -2 v 16 16 h 2 2 z m 584,0 v -16 h 10 10 v 16 16 h 24 24 v -2 -2 h 2 2 v -14 -14 h 10 10 v -12 -12 h -22 -22 v 12 12 h -4 -4 v -12 -12 h -24 -24 v 12 12 h -2 -2 v 16 16 h 6 6 z m -844,-44 v -28 h -4 -4 v 28 28 h 4 4 z m 56,-12 v -40 h -2 -2 v 40 40 h 2 2 z m 56,12 v -28 h 24 24 v -12 -12 h -40 -40 v 12 12 h 4 4 v 16 16 h 2 2 v -16 -16 h 8 8 v 28 28 h 2 2 z m 56,0 v -28 h -2 -2 v 28 28 h 2 2 z m 56,0 v -28 h -2 -2 v 28 28 h 2 2 z m 124,16 v -12 h -2 -2 v 12 12 h 2 2 z m 56,0 v -12 h -2 -2 v 12 12 h 2 2 z m 52,0 v -12 h -6 -6 v 12 12 h 6 6 z m 56,0 v -12 h -4 -4 v 12 12 h 4 4 z m 168,0 v -12 h -2 -2 v -14 -14 h -2 -2 v -2 -2 h -2 -2 v 28 28 h 6 6 z m 56,0 v -12 h 2 2 v -16 -16 h -2 -2 v -12 -12 h -8 -8 v 12 12 h 8 8 v 16 16 h -6 -6 v 12 12 h 6 6 z m 16,0 v -12 h -4 -4 v 12 12 h 4 4 z m 372,0 v -12 h 18 18 v -16 -16 h -26 -26 v 16 16 h 6 6 v 12 12 h 2 2 z m 56,0 v -12 h 18 18 v -16 -16 h -26 -26 v 16 16 h 6 6 v 12 12 h 2 2 z m 56,0 v -12 h 18 18 v -16 -16 h -26 -26 v 16 16 h 6 6 v 12 12 h 2 2 z m 56,0 v -12 h 26 26 v 12 12 h 2 2 v -12 -12 h 18 18 v -16 -16 h -54 -54 v 16 16 h 6 6 v 12 12 h 2 2 z m -852,-40 v -28 h -4 -4 v 26 26 h 2 2 v 2 2 h 2 2 z m 60,12 v -16 h -4 -4 v 16 16 h 4 4 z m 52,0 v -16 h 2 2 v 16 16 h 2 2 v -14 -14 h 2 2 v -2 -2 h 2 2 v 16 16 h 2 2 v -28 -28 h -16 -16 v 12 12 h 2 2 v 2 2 h 2 2 v 14 14 h 2 2 z m 536,0 v -16 h -4 -4 v 2 2 h -2 -2 v 12 12 h 2 2 v 2 2 h 4 4 z m 8,14 v -2 h 2 2 v -12 -12 h -2 -2 v -2 -2 h -2 -2 v 16 16 h 2 2 z m -1064,-42 v -12 h -4 -4 v 12 12 h 4 4 z m 8,0 v -12 h -2 -2 v 12 12 h 2 2 z m 28,0 v -12 h -4 -4 v 12 12 h 4 4 z m 684,0 v -12 h -4 -4 v 12 12 h 4 4 z m 48,0 v -12 h -2 -2 v 12 12 h 2 2 z m 44,0 v -12 h -6 -6 v 12 12 h 6 6 z m 16,8 v -4 h -2 -2 v -4 -4 h 2 2 v -4 -4 h -4 -4 v 12 12 h 4 4 z m 8,-8 v -12 h -2 -2 v 12 12 h 2 2 z m 16,0 v -12 h -2 -2 v 12 12 h 2 2 z m -920,-54 v -14 h -2 -2 v 14 14 h 2 2 z m 108,0 v -14 h -26 -26 v 14 14 h 26 26 z m 144,0 v -14 h -44 -44 v 14 14 h 44 44 z m 120,0 v -14 h -32 -32 v 14 14 h 32 32 z m 252,0 v -14 h -8 -8 v 14 14 h 8 8 z m 204,0 v -14 h -18 -18 v 14 14 h 18 18 z m 124,0 v -14 h -4 -4 v 14 14 h 4 4 z m -908,-16 v -2 h 2 2 v -10 -10 h -2 -2 v -2 -2 h -6 -6 v 14 14 h 6 6 z m 900,-96 v -14 h -2 -2 v 14 14 h 2 2 z m -288,-54 v -12 h -4 -4 v 12 12 h 4 4 z m 40,0 v -12 h -4 -4 v 12 12 h 4 4 z m 296,-26 v -14 h -2 -2 v -14 -14 h -4 -4 v 12 12 h -2 -2 v 16 16 h 8 8 z m 8,-2 v -16 h -2 -2 v 16 16 h 2 2 z m 20,-28 v -12 h -2 -2 v 12 12 h 2 2 z m -376,-28 v -16 h -4 -4 v 2 2 h -2 -2 v 14 14 h 6 6 z m 192,2 v -14 h 2 2 v -2 -2 h 2 2 v 16 16 h 30 30 v -16 -16 h 76 76 v -12 -12 h 6 6 v -16 -16 h -76 -76 v 16 16 h -4 -4 v -16 -16 h -32 -32 v 16 16 h -10 -10 v -14 -14 h -2 -2 v -2 -2 h -4 -4 v 16 16 h -10 -10 v 12 12 h 12 12 v -12 -12 h 4 4 v 12 12 h 4 4 v 16 16 h 2 2 z m -136,-30 v -12 h -18 -18 v 12 12 h 18 18 z m 72,0 v -12 h -10 -10 v 12 12 h 10 10 z m 16,0 v -12 h -6 -6 v 12 12 h 6 6 z m 320,0 v -12 h -4 -4 v 12 12 h 4 4 z m 16,0 v -12 h -2 -2 v 12 12 h 2 2 z m -352,-84 v -16 h -8 -8 v 16 16 h 8 8 z m 44,0 v -16 h -2 -2 v 16 16 h 2 2 z m 32,-26 v -42 h -2 -2 v 42 42 h 2 2 z m 12,2 v -40 h -4 -4 v 40 40 h 4 4 z m 28,-4 v -12 h -2 -2 v 12 12 h 2 2 z m 48,0 v -12 h -4 -4 v 12 12 h 4 4 z m -164,-40 v -28 h -6 -6 v 16 16 h -2 -2 v 12 12 h 8 8 z m 44,16 v -12 h -2 -2 v 12 12 h 2 2 z m 56,0 v -12 h -2 -2 v 12 12 h 2 2 z m -264,596 v -28 h 28 28 v 28 28 h -28 -28 z m -700,-16 v -12 h 14 14 v 12 12 h -14 -14 z M 508,1228 v -16 h -4 -4 v -12 -12 h 4 4 v -16 -16 h 20 20 v 28 28 h 4 4 v -12 -12 h 4 4 v -16 -16 h -2 -2 v -12 -12 h 2 2 v 12 12 h 2 2 v 2 2 h 2 2 v 2 2 h -2 -2 v 40 40 H 538 508 Z M 0,1200 v -12 h 6 6 v 12 12 H 6 0 Z m 52,10 v -2 h 2 2 v -6 -6 h -2 -2 v -2 -2 h 2 2 v -2 -2 h 6 6 v 12 12 h -8 -8 z m 52,-10 v -12 h 6 6 v -16 -16 h 2 2 v 16 16 h 6 6 v 12 12 h -14 -14 z m 56,0 v -12 h 14 14 v 12 12 h -14 -14 z m 36,0 v -12 h 8 8 v 12 12 h -8 -8 z m 20,0 v -12 h 26 26 v 12 12 h -26 -26 z m 56,0 v -12 h 8 8 v 12 12 h -8 -8 z m 24,0 v -12 h 14 14 v 12 12 h -14 -14 z m 32,0 v -12 h 6 6 v -16 -16 h 2 2 v 16 16 h 18 18 v 12 12 h -26 -26 z m 60,0 v -12 h 4 4 v -16 -16 h 2 2 v 16 16 h 18 18 v 12 12 h -24 -24 z m 60,0 v -12 h 2 2 v -16 -16 h 2 2 v 28 28 h -4 -4 z m 16,0 v -12 h 2 2 v -16 -16 h 2 2 v 16 16 h 10 10 v 12 12 h -14 -14 z m 824,0 v -12 h 24 24 v 12 12 h -24 -24 z m 56,0 v -12 h 24 24 v 12 12 h -24 -24 z m 56,0 v -12 h 16 16 v 12 12 h -16 -16 z m 36,0 v -12 h 4 4 v 12 12 h -4 -4 z m 16,0 v -12 h 4 4 v 12 12 h -4 -4 z m 40,0 v -12 h 4 4 v 12 12 h -4 -4 z m 16,0 v -12 h 4 4 v 12 12 h -4 -4 z m 40,0 v -12 h 4 4 v 12 12 h -4 -4 z m 16,0 v -12 h 4 4 v 12 12 h -4 -4 z m 40,0 v -12 h 4 4 v 12 12 h -4 -4 z m 16,0 v -12 h 4 4 v 12 12 h -4 -4 z m 44,0 v -12 h 2 2 v 12 12 h -2 -2 z m 12,0 v -12 h 4 4 v 12 12 h -4 -4 z m 44,0 v -12 h 2 2 v 12 12 h -2 -2 z m 12,0 v -12 h 4 4 v 12 12 h -4 -4 z m 32,0 v -12 h 8 8 v 12 12 h -8 -8 z m 24,0 v -12 h 4 4 v 12 12 h -4 -4 z m 12,0 v -12 h 18 18 v 12 12 h -18 -18 z m 48,0 v -12 h 16 16 v 12 12 h -16 -16 z m 40,0 v -12 h 2 2 v 12 12 h -2 -2 z m 56,0 v -12 h 2 2 v 12 12 h -2 -2 z m 744,-16 v -28 h -64 -64 v -12 -12 h 126 126 v 12 12 h -30 -30 v 28 28 h -4 -4 v -28 -28 h -24 -24 v 2 2 h -2 -2 v 24 24 h 2 2 v 2 2 h -4 -4 z m 220,0 v -28 h 2 2 v 28 28 h -2 -2 z m 112,0 v -28 h 2 2 v 28 28 h -2 -2 z m 56,0 v -28 h 2 2 v 2 2 h 2 2 v 2 2 h -2 -2 v 20 20 h 2 2 v 4 4 h -4 -4 z m 56,0 v -28 h 2 2 v 2 2 h 2 2 v 26 26 h -4 -4 z m 56,0 v -28 h 2 2 v 2 2 h 2 2 v 26 26 h -4 -4 z m 440,0 v -28 h 4 4 v 2 2 h 2 2 v 26 26 h -6 -6 z m 1052,16 v -12 h -2 -2 v -16 -16 h 2 2 v 16 16 h 6 6 v 12 12 h -6 -6 z m 408,0 v -12 h 16 16 v 12 12 h -16 -16 z M 584,1172 v -16 h 2 2 v 2 2 h 2 2 v 12 12 h -2 -2 v 2 2 h -2 -2 z m -100,-28 v -12 h -2 -2 v -2 -2 h -2 -2 v -12 -12 h -4 -4 v -14 -14 h 2 2 v -14 -14 H 324 176 v -26 -26 h 2 2 v -2 -2 h 56 56 v 2 2 h 2 2 v 8 8 h -2 -2 v 2 2 h 2 2 v 2 2 h 88 88 v -12 -12 h 2 2 v -2 -2 h 32 32 v -14 -14 h 40 40 v -14 -14 h 28 28 v 14 14 h 8 8 v -14 -14 h 50 50 v 2 2 h 2 2 v 12 12 h 4 4 v -14 -14 h 2 2 v 2 2 h 2 2 v 2 2 h -2 -2 v 8 8 h 2 2 v 2 2 h 8 8 v -2 -2 h 2 2 v -8 -8 h -2 -2 v -2 -2 h 2 2 v -2 -2 h 4 4 v 14 14 h 4 4 v -2 -2 h 2 2 v -12 -12 h 4 4 v 14 14 h 6 6 v -14 -14 h 12 12 v 14 14 h 12 12 v -2 -2 h 2 2 v -10 -10 h -2 -2 v -2 -2 h -2 -2 v -12 -12 h -58 -58 v -16 -16 h -56 -56 v -12 -12 h 58 58 v -16 -16 h -10 -10 v -12 -12 h -4 -4 v 2 2 h -2 -2 v 8 8 h 2 2 v 2 2 h -12 -12 v -12 -12 h -2 -2 v 12 12 h -10 -10 v -12 -12 h -48 -48 v -16 -16 h -44 -44 v -12 -12 h 26 26 v -16 -16 h 54 54 v -12 -12 h -90 -90 v -14 -14 h 36 36 v -14 -14 h -16 -16 v -12 -12 h 2 2 v -2 -2 h 44 44 v 14 14 h -26 -26 v 14 14 h 68 68 v 2 2 h 2 2 v 12 12 h -12 -12 v 10 10 h -2 -2 v 2 2 h 26 26 v -12 -12 h -2 -2 v -28 -28 h -38 -38 v -14 -14 h 32 32 v -14 -14 h 4 4 v 14 14 h 2 2 v -56 -56 h -10 -10 v 42 42 H 640 536 v -2 -2 h -2 -2 v -8 -8 h 2 2 v -2 -2 h -2 -2 v -2 -2 h -2 -2 v -14 -14 h 2 2 v -2 -2 h 2 2 v -2 -2 h -2 -2 v -8 -8 h 2 2 v -2 -2 h 24 24 v -14 -14 h 16 16 v 14 14 h 2 2 v -28 -28 h -44 -44 v -8 -8 h 2 2 v -2 -2 h -2 -2 v -2 -2 h -10 -10 v 12 12 h -2 -2 v -12 -12 h -42 -42 v -2 -2 h -2 -2 v -14 -14 h -2 -2 v 16 16 h -2 -2 v -16 -16 h -2 -2 v 14 14 h -2 -2 v 2 2 h -20 -20 v -16 -16 h -2 -2 v 16 16 h -28 -28 v -28 -28 h 74 74 v -28 -28 h -42 -42 v -2 -2 h -2 -2 v -12 -12 h 2 2 v -2 -2 h 64 64 v 2 2 h 2 2 v 14 14 h 10 10 v -16 -16 h 14 14 v 16 16 h 6 6 v -16 -16 h 8 8 v 16 16 h 4 4 v -16 -16 h 16 16 v 16 16 h 2 2 v -16 -16 h 24 24 v 16 16 h 4 4 v -16 -16 h 120 120 v -12 -12 h -6 -6 v -2 -2 h -2 -2 v -10 -10 h 2 2 v -2 -2 h 2 2 v -14 -14 h 140 140 v 14 14 h 104 104 v -14 -14 h 38 38 v 14 14 h -18 -18 v 2 2 h -2 -2 v 12 12 h -18 -18 v 12 12 h 38 38 v 16 16 h 56 56 v 12 12 h -36 -36 v 2 2 h -2 -2 v 14 14 h -2 -2 v -16 -16 h -26 -26 v -12 -12 h -22 -22 v 12 12 h 2 2 v 16 16 h -8 -8 v -16 -16 h -2 -2 v 16 16 h -6 -6 v -16 -16 h -16 -16 v 2 2 h -2 -2 v 14 14 h -24 -24 v -16 -16 h -2 -2 v 2 2 h -2 -2 v 14 14 h -10 -10 v -16 -16 h -2 -2 v 16 16 h -38 -38 v -16 -16 h 26 26 v -12 -12 h -24 -24 v -28 -28 h -36 -36 v -14 -14 h -2 -2 v 14 14 h -20 -20 v -12 -12 h -2 -2 v -2 -2 h -28 -28 v 2 2 h -2 -2 v 50 50 h 2 2 v 2 2 h -14 -14 v 16 16 h 12 12 v 12 12 h 52 52 v 16 16 h -28 -28 v 12 12 h 4 4 v 14 14 h -30 -30 v 14 14 h 34 34 v -28 -28 h 148 148 v 14 14 h 2 2 v -14 -14 h 20 20 v -12 -12 h -38 -38 v -16 -16 h 96 96 v 2 2 h 2 2 v 14 14 h -56 -56 v 12 12 h 58 58 v 14 14 h 54 54 v 14 14 h -20 -20 v 12 12 h -2 -2 v 2 2 h -86 -86 v 14 14 H 1106 780 v 14 14 h 2 2 v 14 14 h 2 2 v -14 -14 h 10 10 v 14 14 h 12 12 v -14 -14 h 48 48 v 14 14 h 18 18 v -14 -14 h 48 48 v 14 14 h 8 8 v -14 -14 h 20 20 v 28 28 h -76 -76 v 14 14 h 30 30 v 14 14 h 4 4 v -2 -2 h 2 2 v -12 -12 h 40 40 v 14 14 h 2 2 v -12 -12 h 2 2 v -2 -2 h 30 30 v -14 -14 h 6 6 v 14 14 h 22 22 v -14 -14 h 2 2 v 14 14 h 2 2 v 2 2 h 2 2 v -2 -2 h 2 2 v -2 -2 h -2 -2 v -12 -12 h 6 6 v 14 14 h 2 2 v -14 -14 h 4 4 v 14 14 h 16 16 v -14 -14 h 4 4 v 14 14 h 2 2 v -14 -14 h 2 2 v 14 14 h 18 18 v 14 14 h 58 58 v -2 -2 h 2 2 v -12 -12 h 2 2 v 14 14 h 16 16 v 12 12 h -24 -24 v 16 16 h -4 -4 v -2 -2 h -2 -2 v -2 -2 h 2 2 v -10 -10 h -2 -2 v -2 -2 h -86 -86 v 16 16 h -8 -8 v -16 -16 h -6 -6 v 14 14 h -2 -2 v 2 2 h -2 -2 v -16 -16 h -6 -6 v 2 2 h -2 -2 v 14 14 h -16 -16 v -2 -2 h -2 -2 v -10 -10 h 2 2 v -2 -2 h -2 -2 v -2 -2 h -2 -2 v 16 16 h -14 -14 v 2 2 h -2 -2 v 6 6 h 2 2 v 4 4 h -22 -22 v -12 -12 h -2 -2 v 12 12 H 982 848 v 2 2 h -2 -2 v 14 14 h 34 34 v 12 12 h 2 2 v -12 -12 h 28 28 v 12 12 h 4 4 v -12 -12 h 44 44 v 12 12 h 4 4 v -12 -12 h 68 68 v 12 12 h 6 6 v -12 -12 h 4 4 v 12 12 h 4 4 v -12 -12 h 142 142 v 12 12 h 12 12 v 2 2 h 2 2 v 26 26 h -10 -10 v 2 2 h -2 -2 v 14 14 h -48 -48 v 26 26 h 48 48 v 14 14 h -94 -94 v -14 -14 h 30 30 v -2 -2 h 2 2 v -2 -2 h -2 -2 v -6 -6 h 2 2 v -2 -2 h -2 -2 v -2 -2 h -58 -58 v 14 14 h 26 26 v 14 14 h -108 -108 v -28 -28 h -2 -2 v 28 28 h -6 -6 v 2 2 h -2 -2 v 12 12 h 64 64 v 14 14 h 10 10 v -14 -14 h 92 92 v 28 28 h -178 -178 v -42 -42 h -2 -2 v 2 2 h -2 -2 v 12 12 h -4 -4 v 14 14 h -22 -22 v 2 2 h -2 -2 v 8 8 h 2 2 v 2 2 h -2 -2 v 2 2 h -34 -34 v 14 14 H 816 688 v -42 -42 h -6 -6 v 42 42 h -10 -10 v -14 -14 h -12 -12 v 14 14 h -2 -2 v 2 2 h -2 -2 v -2 -2 h -2 -2 v -42 -42 h 20 20 v -14 -14 h -54 -54 v 2 2 h -2 -2 v 12 12 h -18 -18 v 14 14 h 18 18 v 14 14 h -12 -12 v 14 14 h -4 -4 v 2 2 h -2 -2 v 12 12 h -2 -2 v -14 -14 h -2 -2 v 14 14 h -2 -2 v -2 -2 h -2 -2 v -8 -8 h 2 2 v -2 -2 h -2 -2 v -2 -2 h -6 -6 v 14 14 h 2 2 v 12 12 h -2 -2 z m 312,-110 v -14 h -4 -4 v 14 14 h 4 4 z m 168,0 v -14 h 10 10 v -12 -12 h -2 -2 v -2 -2 h -12 -12 v 2 2 h -2 -2 v 12 12 h -12 -12 v 14 14 h 18 18 z m -264,-16 v -2 h 2 2 v -10 -10 h -2 -2 v -2 -2 h -4 -4 v 14 14 h 4 4 z m 84,-12 v -14 h -10 -10 v -14 -14 h -10 -10 v 14 14 h 4 4 v 12 12 h 2 2 v 2 2 h 14 14 z m 132,0 v -14 h -30 -30 v 14 14 h 30 30 z m 160,-54 v -12 h -2 -2 v -2 -2 h -22 -22 v -12 -12 h -2 -2 v -16 -16 h 26 26 v -12 -12 h -30 -30 v 2 2 h -2 -2 v 10 10 h 2 2 v 2 2 h 2 2 v 14 14 h 2 2 v 12 12 h -4 -4 v 2 2 h -2 -2 v 10 10 h 2 2 v 2 2 h 30 30 z m 40,-28 v -12 h -18 -18 v 12 12 h 18 18 z m 12,0 v -12 h -4 -4 v 12 12 h 4 4 z m 12,0 v -12 h -4 -4 v 12 12 h 4 4 z m 44,0 v -12 h -14 -14 v 12 12 h 14 14 z m 20,0 v -12 h -8 -8 v 12 12 h 8 8 z m 16,0 v -12 h -4 -4 v 12 12 h 4 4 z M 852,868 v -12 h -24 -24 v 12 12 h 24 24 z m 340,0 v -12 h -20 -20 v 12 12 h 20 20 z m 72,0 v -12 h -8 -8 v 12 12 h 8 8 z m 24,0 v -12 h -10 -10 v 12 12 h 10 10 z m 36,0 v -12 h -14 -14 v 12 12 h 14 14 z m 168,0 v -12 h 8 8 v -16 -16 h -38 -38 v 16 16 h -50 -50 v 12 12 h 80 80 z m -372,-28 v -16 h -2 -2 v 16 16 h 2 2 z M 764,756 v -12 h -12 -12 v 12 12 h 12 12 z m 152,-40 v -28 h -30 -30 v 12 12 h 28 28 v 16 16 h 2 2 z m 28,12 v -16 h -4 -4 v 16 16 h 4 4 z m 168,0 v -16 h -18 -18 v -12 -12 h -4 -4 v 12 12 h -44 -44 v -12 -12 h -14 -14 v 28 28 h 80 80 z m 12,14 v -2 h 2 2 v -12 -12 h -2 -2 v -2 -2 h -2 -2 v 16 16 h 2 2 z m 12,-14 v -16 h -2 -2 v 16 16 h 2 2 z M 712,700 v -12 h -2 -2 v 12 12 h 2 2 z m 204,-68 v -28 h -4 -4 v 14 14 h 2 2 v 14 14 h 2 2 z m 36,14 v -14 h -2 -2 v 14 14 h 2 2 z M 780,590 v -14 h -4 -4 v 14 14 h 4 4 z m 340,-84 v -14 h -2 -2 v 14 14 h 2 2 z m 220,0 v -14 h -2 -2 v 14 14 h 2 2 z M 688,478 v -14 h -6 -6 v 14 14 h 6 6 z m 144,0 v -14 h -24 -24 v -26 -26 h -8 -8 v -16 -16 h -28 -28 v 16 16 h 8 8 v 12 12 h 24 24 v 2 2 h 2 2 v 12 12 h -6 -6 v 14 14 h 32 32 z m 128,12 v -2 h -2 -2 v -10 -10 h 2 2 v -2 -2 h -4 -4 v 14 14 h 4 4 z m 244,-12 v -14 h -26 -26 v 14 14 h 26 26 z m 128,0 v -14 h -32 -32 v 14 14 h 32 32 z M 916,452 v -12 h 2 2 v -2 -2 h 24 24 v -12 -12 h -30 -30 v 12 12 h 2 2 v 14 14 h 2 2 z m 60,10 v -2 h 2 2 v -12 -12 h 38 38 v -12 -12 h -42 -42 v 26 26 h 2 2 z M 564,340 v -16 h -6 -6 v 2 2 h -2 -2 v 14 14 h 8 8 z m 188,0 v -16 h -48 -48 v -12 -12 h -18 -18 v 12 12 h -20 -20 v 16 16 h 86 86 z m 16,0 v -16 h -4 -4 v 16 16 h 4 4 z m 32,0 v -16 h -2 -2 v 16 16 h 2 2 z m 512,-28 v -12 h -6 -6 v 12 12 h 6 6 z m 92,10 v -2 h -2 -2 v -10 -10 h -2 -2 v 12 12 h 4 4 z m -64,-38 v -16 h -2 -2 v 16 16 h 2 2 z m -704,860 v -12 h 26 26 v 12 12 h -26 -26 z m 240,0 v -12 h 20 20 v 12 12 h -20 -20 z m 792,0 v -12 h 198 198 v -12 -12 h 4 4 v 12 12 h 32 32 v 12 12 h -234 -234 z m 496,0 v -12 h 2 2 v 12 12 h -2 -2 z m 128,0 v -12 h 50 50 v 12 12 h -50 -50 z m 112,0 v -12 h 10 10 v 12 12 h -10 -10 z m 24,0 v -12 h 64 64 v 12 12 h -64 -64 z M 160,1118 v -14 H 120 80 v -14 -14 h 46 46 v 14 14 h 2 2 v -14 -14 h 38 38 v 14 14 h 4 4 v 2 2 h 2 2 v 12 12 h -52 -52 z m 120,0 v -14 h 2 2 v 14 14 h -2 -2 z m 8,2 v -12 h 2 2 v -2 -2 h 2 2 v 2 2 h 2 2 v 12 12 h -6 -6 z m 16,-2 v -14 h 2 2 v 14 14 h -2 -2 z m 20,2 v -12 h 4 4 v 2 2 h -2 -2 v 6 6 h 2 2 v 2 2 h -2 -2 v 2 2 h -2 -2 z m 36,-2 v -14 h 2 2 v 14 14 h -2 -2 z m 184,0 v -14 h 2 2 v 14 14 h -2 -2 z m 20,-28 v -14 h 8 8 v 14 14 h -8 -8 z m 20,-12 v -26 h 2 2 v -2 -2 h 12 12 v 2 2 h 2 2 v 26 26 h -16 -16 z m 2196,12 v -14 h 34 34 v 14 14 h -34 -34 z m 72,0 v -14 h 2 2 v 14 14 h -2 -2 z m 24,0 v -14 h 12 12 v 2 2 h -2 -2 v 10 10 h 2 2 v 2 2 h -12 -12 z m 44,0 v -14 h 6 6 v 14 14 h -6 -6 z m 228,0 v -14 h 2 2 v 14 14 h -2 -2 z m 24,0 v -14 h 4 4 v 14 14 h -4 -4 z m 12,0 v -14 h 2 2 v 14 14 h -2 -2 z m 24,0 v -14 h 4 4 v 14 14 h -4 -4 z m -1444,-26 v -12 h 2 2 v -2 -2 h 34 34 v -14 -14 h 16 16 v 14 14 h 14 14 v -14 -14 h 22 22 v 12 12 h -2 -2 v 2 2 h 54 54 v 14 14 H 1904 1764 Z M 0,1034 v -14 h 34 34 v -12 -12 h 2 2 v -2 -2 h 50 50 v 28 28 H 86 0 Z m 2572,0 v -14 h 36 36 v 14 14 h -36 -36 z m -664,-56 v -14 h -8 -8 v -14 -14 h -2 -2 v 14 14 h -62 -62 v -14 -14 h -4 -4 v -12 -12 h -18 -18 v -14 -14 h -2 -2 v -2 -2 h -14 -14 v -12 -12 h 2 2 v -16 -16 h -4 -4 v 16 16 h -8 -8 v 12 12 h -24 -24 v -12 -12 h 4 4 v -16 -16 h 18 18 v -12 -12 h 66 66 v 12 12 h 14 14 v -12 -12 h 4 4 v 12 12 h 152 152 v -12 -12 h 64 64 v 12 12 h 2 2 v 2 2 h 2 2 v 14 14 h 4 4 v 12 12 h -10 -10 v 16 16 h -2 -2 v -14 -14 h -2 -2 v -2 -2 h -4 -4 v -28 -28 h -4 -4 v 14 14 h -2 -2 v 2 2 h -4 -4 v -16 -16 h -10 -10 v 16 16 h -2 -2 v -14 -14 h -2 -2 v -2 -2 h -4 -4 v 16 16 h -4 -4 v 2 2 h -2 -2 v 2 2 h 2 2 v 8 8 h -6 -6 v 16 16 h -18 -18 v 12 12 h 38 38 v 14 14 h -20 -20 v 14 14 h -2 -2 v -14 -14 h -14 -14 v 14 14 h -2 -2 v -14 -14 h -54 -54 v -14 -14 h -2 -2 v 14 14 h -12 -12 v -40 -40 h -2 -2 v -2 -2 h -2 -2 v 16 16 h -4 -4 v 40 40 h -4 -4 v -14 -14 h -30 -30 v 14 14 h -2 -2 z m -24,-44 v -2 h -2 -2 v -10 -10 h -14 -14 v 12 12 h 16 16 z m 48,-10 v -12 h -2 -2 v -16 -16 h -2 -2 v 16 16 h -10 -10 v 12 12 h 14 14 z m 180,-28 v -16 h -2 -2 v 16 16 h 2 2 z m -344,-28 v -12 h -12 -12 v 12 12 h 12 12 z m 24,10 v -2 h -2 -2 v -8 -8 h 2 2 v -2 -2 h 2 2 v -16 -16 h -6 -6 v 16 16 h -4 -4 v 12 12 h 8 8 z m 352,-10 v -12 h -4 -4 v 12 12 h 4 4 z m -416,-28 v -16 h -14 -14 v 16 16 h 14 14 z m 536,0 v -16 h -2 -2 v 16 16 h 2 2 z m 244,138 v -14 h -104 -104 v -14 -14 h 30 30 v -12 -12 h 4 4 v 12 12 h 8 8 v -12 -12 h 4 4 v 12 12 h 2 2 v -12 -12 h 14 14 v 12 12 h 2 2 v -12 -12 h 6 6 v 12 12 h 2 2 v -12 -12 h 18 18 v 12 12 h 2 2 v -12 -12 h 6 6 v 12 12 h 2 2 v -12 -12 h 2 2 v 12 12 h 2 2 v -12 -12 h 4 4 v 12 12 h -4 -4 v 12 12 h 2 2 v 2 2 h 2 2 v 14 14 h -4 -4 z m 764,0 v -14 h -2 -2 v -2 -2 h -2 -2 v -12 -12 h -2 -2 v -12 -12 h 82 82 v 40 40 h -76 -76 z m 156,-26 v -40 h 6 6 v 40 40 h -6 -6 z m 16,0 v -40 h 36 36 v 40 40 h -36 -36 z m 76,0 v -40 h 20 20 v -16 -16 h -2 -2 v -12 -12 h 14 14 v 12 12 h -2 -2 v 2 2 h -2 -2 v 14 14 h 14 14 v 40 40 h -42 -42 z m 88,26 v -14 h 12 12 v 14 14 h -12 -12 z m 32,0 v -14 h 30 30 v 14 14 h -30 -30 z m 856,-14 v -28 h 2 2 v 28 28 h -2 -2 z M 2240,950 v -14 h 20 20 v 14 14 h -20 -20 z m 44,2 v -12 h 4 4 v 10 10 h -2 -2 v 2 2 h -2 -2 z m 292,-2 v -14 h 8 8 v 14 14 h -8 -8 z m 28,12 v -2 h -2 -2 v -10 -10 h 2 2 v -2 -2 h 22 22 v 14 14 h -22 -22 z m 48,-10 v -12 h 2 2 v -2 -2 h 14 14 v 14 14 h -16 -16 z m 956,-28 v -12 h 12 12 v 12 12 h -12 -12 z m 32,0 v -12 h 58 58 v 12 12 h -58 -58 z M 468,896 v -16 h -28 -28 v -12 -12 h 40 40 v -16 -16 h 2 2 v 2 2 h 2 2 v 26 26 h -14 -14 v 16 16 h -2 -2 z m 2312,0 v -16 h 2 2 v 16 16 h -2 -2 z m 160,0 v -16 h 2 2 v 16 16 h -2 -2 z m 300,0 v -16 h 2 2 v 16 16 h -2 -2 z M 136,868 v -12 h 18 18 v 12 12 h -18 -18 z m 40,0 v -12 h 88 88 v 12 12 h -88 -88 z m 208,0 v -12 h 4 4 v 12 12 h -4 -4 z m 140,0 v -12 h 12 12 v 12 12 h -12 -12 z m 40,0 v -12 h 8 8 v 12 12 h -8 -8 z m 20,0 v -12 h 16 16 v 12 12 h -16 -16 z m 36,0 v -12 h 28 28 v 12 12 h -28 -28 z m 1672,0 v -12 h 22 22 v 12 12 h -22 -22 z m 56,0 v -12 h 30 30 v -16 -16 h -66 -66 v -12 -12 h 544 544 v 12 12 h 22 22 v 28 28 h -12 -12 v -12 -12 h -28 -28 v 12 12 h -36 -36 v -12 -12 h -10 -10 v -16 -16 h -412 -412 v 16 16 h 6 6 v 12 12 h -38 -38 z m 80,0 v -12 h 86 86 v 12 12 h -86 -86 z m 180,0 v -12 h 6 6 v 2 2 h 2 2 v 10 10 h -8 -8 z m 20,0 v -12 h 8 8 v 12 12 h -8 -8 z m 20,0 v -12 h 4 4 v 12 12 h -4 -4 z m 16,0 v -12 h 2 2 v 12 12 h -2 -2 z m 212,0 v -12 h 4 4 v 12 12 h -4 -4 z m 16,0 v -12 h 4 4 v 12 12 h -4 -4 z m 536,-16 v -28 h 6 6 v 28 28 h -6 -6 z m 16,0 v -28 h 18 18 v -12 -12 h 18 18 v 12 12 h -12 -12 v 18 18 h -2 -2 v 6 6 h 2 2 v 4 4 h -24 -24 z m 52,16 v -12 h 10 10 v 12 12 h -10 -10 z m 24,0 v -12 h 16 16 v 12 12 h -16 -16 z m 152,8 v -4 h 2 2 v -4 -4 h -2 -2 v -2 -2 h 2 2 v -2 -2 h 48 48 v 12 12 h -50 -50 z m 104,-8 v -12 h 16 16 v -14 -14 h -2 -2 v -2 -2 h -66 -66 v -4 -4 h 2 2 v -4 -4 h -2 -2 v -2 -2 h 2 2 v -2 -2 h 50 50 v -16 -16 h -38 -38 v -12 -12 h -12 -12 v -2 -2 h -2 -2 v -2 -2 h 2 2 v -36 -36 h -2 -2 v -16 -16 h 4 4 v 14 14 h 12 12 v -14 -14 h 2 2 v 14 14 h 4 4 v -14 -14 h 12 12 v -14 -14 h -34 -34 v -2 -2 h 2 2 v -12 -12 h -18 -18 v -12 -12 h -2 -2 v -2 -2 h -10 -10 v 2 2 h -2 -2 v 12 12 h -6 -6 v -2 -2 h -2 -2 v -12 -12 h -2 -2 v 14 14 h -2 -2 v -28 -28 h -10 -10 v 28 28 h 8 8 v 28 28 h 2 2 v 28 28 h 8 8 v 12 12 h -10 -10 v 16 16 h 2 2 v 12 12 h -78 -78 v -2 -2 h 2 2 v -10 -10 h -4 -4 v -16 -16 h -10 -10 v 16 16 h 8 8 v 12 12 h -74 -74 v -12 -12 h -6 -6 v -14 -14 h 2 2 v -2 -2 h 4 4 v -12 -12 h -74 -74 v -14 -14 h 12 12 v -14 -14 h 6 6 v 14 14 h 118 118 v -14 -14 h -6 -6 v -14 -14 h -2 -2 v 14 14 h -54 -54 v -14 -14 h -10 -10 v -14 -14 h -6 -6 v 14 14 h -2 -2 v -56 -56 h -8 -8 v -14 -14 h 4 4 v -2 -2 h 2 2 v -12 -12 h 2 2 v -12 -12 h 6 6 v 24 24 h -2 -2 v 2 2 h -4 -4 v 14 14 h 2 2 v 12 12 h 2 2 v 2 2 h 8 8 v 14 14 h -4 -4 v 14 14 h 74 74 v -12 -12 h -2 -2 v -2 -2 h -62 -62 v -14 -14 h 66 66 v -28 -28 h 14 14 v 28 28 h 30 30 v 14 14 h -30 -30 v 2 2 h -2 -2 v 2 2 h 2 2 v 6 6 h -2 -2 v 2 2 h 2 2 v 2 2 h 2 2 v 14 14 h 2 2 v -14 -14 h 36 36 v 56 56 h 2 2 v -68 -68 h 2 2 v -2 -2 h 6 6 v 14 14 h 2 2 v -12 -12 h 2 2 v -2 -2 h 4 4 v -14 -14 h -16 -16 v -28 -28 h -24 -24 v -2 -2 h -2 -2 v -10 -10 h 2 2 v -2 -2 h 24 24 v -12 -12 h 164 164 v 12 12 h -14 -14 v 2 2 h -2 -2 v 12 12 h 14 14 v 14 14 h 2 2 v 42 42 h 14 14 v -2 -2 h 2 2 v -54 -54 h 6 6 v -14 -14 h -6 -6 v -12 -12 h 24 24 v 12 12 h 14 14 v -12 -12 h 24 24 v 66 66 h 2 2 v 2 2 h -2 -2 v 2 2 h -2 -2 v 12 12 h 22 22 v -2 -2 h 2 2 v -10 -10 h -2 -2 v -2 -2 h -12 -12 v -42 -42 h 34 34 v -14 -14 h -2 -2 v -12 -12 h 16 16 v 2 2 h 2 2 v 2 2 h -2 -2 v 8 8 h 4 4 v -12 -12 h 26 26 v -16 -16 h 12 12 v 16 16 h 4 4 v -2 -2 h 2 2 v -10 -10 h -2 -2 v -2 -2 h 2 2 v -2 -2 h 130 130 v -12 -12 h 162 162 v 12 12 h -106 -106 v 16 16 h -80 -80 v 12 12 h 22 22 v 2 2 h 2 2 v 12 12 h 2 2 v 14 14 h -28 -28 v -14 -14 h 2 2 v -14 -14 h -2 -2 v -12 -12 h -56 -56 v 12 12 h 16 16 v 2 2 h 2 2 v 10 10 h -2 -2 v 2 2 h -34 -34 v -14 -14 h -26 -26 v 14 14 h -50 -50 v 14 14 h -6 -6 v 14 14 h 28 28 v 14 14 h -22 -22 v 14 14 h -2 -2 v 12 12 h 2 2 v 2 2 h -8 -8 v 14 14 h 8 8 v 4 4 h -2 -2 v 20 20 h 2 2 v 2 2 h -2 -2 v 2 2 h -158 -158 v 12 12 h 158 158 v 2 2 h 2 2 v 2 2 h -2 -2 v 10 10 h 2 2 v 2 2 h 2 2 v -16 -16 h 32 32 v 14 14 h 2 2 v 2 2 h 4 4 v 12 12 h -72 -72 v 16 16 h 30 30 v 2 2 h 2 2 v 2 2 h -2 -2 v 8 8 h 2 2 v 18 18 h -2 -2 v 6 6 h 2 2 v 4 4 h -82 -82 v -12 -12 h 78 78 v -16 -16 h -28 -28 v -12 -12 h -2 -2 v 12 12 h -18 -18 v -12 -12 h 16 16 v -14 -14 h -2 -2 v -2 -2 h -16 -16 v 16 16 h -6 -6 v -16 -16 h -30 -30 v 16 16 h 4 4 v 12 12 h -32 -32 v 16 16 h 32 32 v 12 12 h -86 -86 z m 96,-28 v -16 h -2 -2 v 16 16 h 2 2 z m -56,-28 v -12 h 4 4 v 12 12 h 2 2 v -12 -12 h 52 52 v -2 -2 h 2 2 v -12 -12 h -2 -2 v -2 -2 h -58 -58 v 16 16 h -2 -2 v 12 12 h 2 2 z m -8,-26 v -14 h -2 -2 v -2 -2 h -6 -6 v 16 16 h 8 8 z m -364,-58 v -16 h -2 -2 v 16 16 h 2 2 z m 52,0 v -16 h -2 -2 v 2 2 h -2 -2 v 12 12 h 2 2 v 2 2 h 2 2 z m 24,0 v -16 h -2 -2 v 16 16 h 2 2 z m 36,-12 v -28 h -8 -8 v 12 12 h 6 6 v 16 16 h 2 2 z m 220,0 v -28 h -2 -2 v 28 28 h 2 2 z m -348,-84 v -56 h -10 -10 v 14 14 h 2 2 v 14 14 h -2 -2 v 28 28 h 10 10 z m 16,42 v -14 h -2 -2 v 14 14 h 2 2 z m 52,-40 v -26 h -4 -4 v 26 26 h 4 4 z m 60,-2 v -28 h -14 -14 v 14 14 h 12 12 v 14 14 h 2 2 z m 232,14 v -14 h -22 -22 v 14 14 h 22 22 z m 20,0 v -14 h -8 -8 v 14 14 h 8 8 z m 8,0 v -14 h -2 -2 v 14 14 h 2 2 z m 140,0 v -14 h -8 -8 v 14 14 h 8 8 z m -552,-26 v -12 h -4 -4 v 2 2 h 2 2 v 10 10 h 2 2 z m 472,10 v -2 h 2 2 v -10 -10 h -2 -2 v -2 -2 h -4 -4 v 14 14 h 4 4 z m 220,-12 v -14 h -34 -34 v 14 14 h 34 34 z m -284,-56 v -14 h -12 -12 v -14 -14 h -4 -4 v 14 14 h -30 -30 v -14 -14 h -18 -18 v 28 28 h 64 64 z m 136,-42 v -56 h -6 -6 v 42 42 h -2 -2 v 2 2 h -2 -2 v 12 12 h 10 10 z m 16,42 v -14 h -4 -4 v 14 14 h 4 4 z m 24,12 v -2 h 2 2 v -10 -10 h -2 -2 v -2 -2 h -8 -8 v 14 14 h 8 8 z m 100,-12 v -14 h -18 -18 v 14 14 h 18 18 z m 24,0 v -14 h -8 -8 v 2 2 h -2 -2 v 12 12 h 10 10 z m -684,-56 v -14 h -2 -2 v 14 14 h 2 2 z m 112,-28 v -14 h -2 -2 v 14 14 h 2 2 z m 48,0 v -14 h -10 -10 v 14 14 h 10 10 z m 132,-14 v -28 h -2 -2 v 12 12 h -2 -2 v 2 2 h -8 -8 v -12 -12 h -4 -4 v 26 26 h 16 16 z m 68,14 v -14 h -4 -4 v 14 14 h 4 4 z m -232,-28 v -14 h -2 -2 v 14 14 h 2 2 z m 76,0 v -14 h -12 -12 v 14 14 h 12 12 z m 96,12 v -2 h 2 2 v -10 -10 h -2 -2 v -2 -2 h -2 -2 v 14 14 h 2 2 z m 12,-12 v -14 h -2 -2 v 14 14 h 2 2 z m 24,12 v -2 h 2 2 v -10 -10 h -2 -2 v -2 -2 h -2 -2 v 14 14 h 2 2 z m -244,350 v -12 h 16 16 v 12 12 h -16 -16 z m 36,0 v -12 h 14 14 v 12 12 h -14 -14 z m 400,0 v -12 h 20 20 v 12 12 h -20 -20 z m 1032,0 v -12 h 58 58 v 12 12 h -58 -58 z m 120,0 v -12 h 6 6 v 12 12 h -6 -6 z M 524,756 v -12 h 2 2 v 12 12 h -2 -2 z m 1124,-28 v -16 h 22 22 v 16 16 h -22 -22 z m 660,14 v -2 h -2 -2 v -12 -12 h 2 2 v -2 -2 h 200 200 v 16 16 h -200 -200 z m 408,-14 v -16 h 60 60 v 16 16 h -60 -60 z m 128,14 v -2 h -2 -2 v -2 -2 h 2 2 v -8 -8 h -2 -2 v -2 -2 h 2 2 v -2 -2 h 52 52 v 16 16 h -52 -52 z m 120,-14 v -16 h 4 4 v 2 2 h 2 2 v 14 14 h -6 -6 z m 20,0 v -16 h 16 16 v 16 16 h -16 -16 z m 36,0 v -16 h 38 38 v 16 16 h -38 -38 z m 84,0 v -16 h 22 22 v 16 16 h -22 -22 z M 1816,700 v -12 h 12 12 v 12 12 h -12 -12 z m 1792,0 v -12 h 2 2 v 12 12 h -2 -2 z M 2248,674 v -14 h -4 -4 v -14 -14 h 48 48 v 14 14 h 2 2 v -14 -14 h 4 4 v 14 14 h 18 18 v -14 -14 h 6 6 v 14 14 h 32 32 v -14 -14 h 2 2 v 14 14 h 8 8 v -14 -14 h 8 8 v 14 14 h 2 2 v -14 -14 h 2 2 v 14 14 h 2 2 v 2 2 h 2 2 v -2 -2 h 2 2 v -14 -14 h 4 4 v 14 14 h 4 4 v -14 -14 h 10 10 v 14 14 h 2 2 v -14 -14 h 18 18 v 14 14 h 2 2 v -14 -14 h 34 34 v 14 14 h 2 2 v -14 -14 h 26 26 v 14 14 h -26 -26 v 14 14 h -210 -210 z m 688,12 v -2 h -2 -2 v -10 -10 h 2 2 v -2 -2 h 2 2 v 2 2 h 2 2 v 12 12 h -4 -4 z m 20,0 v -2 h -2 -2 v -10 -10 h 4 4 v 12 12 h -2 -2 z M 92,662 v -2 H 90 88 V 632 604 H 44 0 v -14 -14 h 74 74 v 2 2 h -2 -2 v 12 12 h 12 12 v 2 2 h 2 2 v 12 12 h -30 -30 v 14 14 h -2 -2 v 2 2 h -2 -2 v -2 -2 h -4 -4 v 2 2 h -2 -2 z m 1276,-42 v -44 h 32 32 v 28 28 h 18 18 v 14 14 h -48 -48 v 2 2 h -2 -2 z M 24,646 v -14 h 12 12 v 14 14 H 36 24 Z m 152,-12 v -26 h 2 2 v -2 -2 h 4 4 v -14 -14 h 2 2 v 14 14 h 28 28 v -14 -14 h 2 2 v 14 14 h 26 26 v -14 -14 h 2 2 v 14 14 h 40 40 v -2 -2 h -2 -2 v -12 -12 h 64 64 v 14 14 h 18 18 v 14 14 h -78 -78 v 14 14 h -4 -4 V 646 632 H 282 180 v 12 12 h 2 2 v 2 2 h -4 -4 z m 1488,12 v -14 h 50 50 v -28 -28 h 42 42 v 14 14 h 78 78 v 14 14 h 110 110 v 14 14 h -280 -280 z m 1196,0 v -14 h 4 4 v 14 14 h -4 -4 z m 12,0 v -14 h 2 2 v 14 14 h -2 -2 z m 12,0 v -14 h 4 4 v 14 14 h -4 -4 z m 12,0 v -14 h 4 4 v 14 14 h -4 -4 z M 664,630 v -2 h -2 -2 v -10 -10 h 2 2 v -2 -2 h 6 6 v 14 14 h -6 -6 z m 456,-26 v -28 h 8 8 v 14 14 h 8 8 v -14 -14 h 26 26 v 14 14 h -22 -22 v 2 2 h -2 -2 v 12 12 h -18 -18 z m 1104,-14 v -14 h 6 6 v 2 2 h -2 -2 v 10 10 h 2 2 v 2 2 h -6 -6 z m 16,0 v -14 h 2 2 v 14 14 h -2 -2 z m 8,0 v -14 h 6 6 v 14 14 h -6 -6 z m 16,0 v -14 h 2 2 v 12 12 h 2 2 v 2 2 h -4 -4 z m 12,0 v -14 h 2 2 v 14 14 h -2 -2 z m 8,0 v -14 h 10 10 v 14 14 h -10 -10 z m 76,0 v -14 h 6 6 v 14 14 h -6 -6 z m 36,0 v -14 h 4 4 v 14 14 h -4 -4 z m 72,0 v -14 h 4 4 v 14 14 h -4 -4 z m 48,0 v -14 h 2 2 v 14 14 h -2 -2 z m 60,0 v -14 h 2 2 v 14 14 h -2 -2 z m 76,0 v -14 h 6 6 v 14 14 h -6 -6 z m 40,0 v -14 h 14 14 v 14 14 h -14 -14 z m 52,0 v -14 h 6 6 v 14 14 h -6 -6 z m 124,0 v -14 h 4 4 v 14 14 h -4 -4 z m 40,0 v -14 h 2 2 v 14 14 h -2 -2 z m 112,0 v -14 h 2 2 v 14 14 h -2 -2 z m 1104,0 v -14 h 50 50 v 14 14 h -50 -50 z m 132,0 v -14 h 2 2 v 14 14 h -2 -2 z m 12,0 v -14 h 18 18 v 14 14 h -18 -18 z M 492,534 v -14 h 2 2 v -2 -2 h 2 2 v -2 -2 h -2 -2 v -6 -6 h 2 2 v -2 -2 h -2 -2 v -2 -2 H 388 280 v -14 -14 h 116 116 v 14 14 h -4 -4 v 14 14 h -2 -2 v 14 14 h -4 -4 z m 2208,0 v -14 h 2 2 v 14 14 h -2 -2 z m 48,0 v -14 h 4 4 v 14 14 h -4 -4 z m 276,0 v -14 h 4 4 v 14 14 h -4 -4 z m 1144,0 v -14 h 8 8 v 14 14 h -8 -8 z m 20,0 v -14 h 6 6 v 14 14 h -6 -6 z M 1716,518 v -2 h -2 -2 v -12 -12 h -24 -24 v -28 -28 h 54 54 v 2 2 h 2 2 v 12 12 h 24 24 v -12 -12 h 2 2 v -2 -2 h 18 18 v 2 2 h 2 2 v 10 10 h -2 -2 v 2 2 h -16 -16 v 14 14 h 16 16 v 2 2 h 2 2 v 10 10 h -2 -2 v 2 2 h -74 -74 z m 308,-10 v -12 h 2 2 v -2 -2 h 38 38 v 2 2 h 2 2 v 10 10 h -2 -2 v 2 2 h -40 -40 z m 384,-2 v -14 h 2 2 v 14 14 h -2 -2 z M 0,478 v -14 h 52 52 v 14 14 H 52 0 Z m 156,0 v -14 h 2 2 v 14 14 h -2 -2 z m 80,0 v -14 h 4 4 v 14 14 h -4 -4 z m 2592,0 v -14 h 2 2 v 14 14 h -2 -2 z m 1532,0 v -14 h 6 6 v 14 14 h -6 -6 z m 28,0 v -14 h 14 14 v 14 14 h -14 -14 z m 120,-14 v -28 h 32 32 v 14 14 h -4 -4 v 14 14 h -4 -4 v -14 -14 h -12 -12 v 14 14 h -12 -12 z m -1204,-2 v -2 h -2 -2 v -10 -10 h 2 2 v -2 -2 h 4 4 v 14 14 h -4 -4 z m 28,-12 v -14 h 2 2 v 14 14 h -2 -2 z m 1156,12 v -2 h -2 -2 v -10 -10 h 2 2 v -2 -2 h 6 6 v 14 14 h -6 -6 z m 104,-10 v -12 h 2 2 v -2 -2 h 16 16 v 14 14 h -18 -18 z M 2244,424 v -12 h 2 2 v 12 12 h -2 -2 z m 128,0 v -12 h 2 2 v 12 12 h -2 -2 z m 36,0 v -12 h 2 2 v 12 12 h -2 -2 z m 36,-16 v -28 h 2 2 v 28 28 h -2 -2 z m 40,16 v -12 h 2 2 v 12 12 h -2 -2 z m 128,0 v -12 h 2 2 v 12 12 h -2 -2 z m 796,0 v -12 h 8 8 v 12 12 h -8 -8 z m 20,0 v -12 h 4 4 v 12 12 h -4 -4 z m 592,0 v -12 h 24 24 v 12 12 h -24 -24 z m 52,0 v -12 h 2 2 v 12 12 h -2 -2 z M 1120,398 v -14 h 2 2 v -2 -2 h 28 28 v 2 2 h 2 2 v 14 14 h -32 -32 z m 76,0 v -14 h 2 2 v -2 -2 h 68 68 v 16 16 h -70 -70 z m 400,-2 v -16 h 2 2 v 16 16 h -2 -2 z m 672,2 v -14 h 2 2 v -2 -2 h 2 2 v 16 16 h -4 -4 z m 24,0 v -14 h -2 -2 v -2 -2 h -2 -2 v -12 -12 h 4 4 v 12 12 h 2 2 v 16 16 h -2 -2 z m 104,0 v -14 h 2 2 v -2 -2 h 2 2 v 16 16 h -4 -4 z m 32,-2 v -16 h 2 2 v 16 16 h -2 -2 z m 56,-28 v -12 h 2 2 v 12 12 h -2 -2 z m 1352,0 v -12 h 4 4 v -28 -28 h -84 -84 v -2 -2 h -2 -2 v -2 -2 h 2 2 v -10 -10 h -2 -2 v -2 -2 h -32 -32 v -12 -12 h 74 74 v -28 -28 h -40 -40 v -2 -2 h -2 -2 v -2 -2 h 2 2 v -8 -8 h -2 -2 v -2 -2 h -2 -2 v -14 -14 h 4 4 v 14 14 h 24 24 v -14 -14 h 4 4 v 14 14 h 140 140 v -14 -14 h 30 30 v 14 14 h 6 6 v -28 -28 h 16 16 v 2 2 h 2 2 v 2 2 h -2 -2 v 8 8 h 2 2 v 2 2 h 2 2 v -14 -14 h 10 10 v 14 14 h 2 2 v -12 -12 h 4 4 v 12 12 h 8 8 v -2 -2 h 2 2 v -12 -12 h 310 310 v 14 14 h 80 80 v 14 14 h -112 -112 v 28 28 h 52 52 v 2 2 h 2 2 v 38 38 h -2 -2 v 2 2 h -14 -14 v 12 12 h -10 -10 v -12 -12 h -4 -4 v 10 10 h 2 2 v 2 2 h -4 -4 v -12 -12 h -4 -4 v 12 12 h -6 -6 v -12 -12 h -2 -2 v 12 12 h -18 -18 v -12 -12 h -6 -6 v 12 12 h -18 -18 v -12 -12 h -2 -2 v 12 12 h -4 -4 v -26 -26 h -2 -2 v -2 -2 h -14 -14 v 16 16 h 12 12 v 12 12 h -38 -38 v -12 -12 h -12 -12 v -28 -28 h -4 -4 v 28 28 h -2 -2 v 12 12 h -20 -20 v -40 -40 h -2 -2 v 40 40 h -18 -18 v -12 -12 h -4 -4 v 12 12 h -6 -6 v -12 -12 h -4 -4 v 12 12 h -20 -20 v -12 -12 h -20 -20 v -28 -28 h -18 -18 v 28 28 h 2 2 v 12 12 h -52 -52 v -12 -12 h -6 -6 v 12 12 h -10 -10 v -12 -12 h -6 -6 v 12 12 h -38 -38 v -12 -12 h -10 -10 v 12 12 h -30 -30 v 28 28 h -4 -4 v -12 -12 h -56 -56 v 12 12 h -12 -12 v -12 -12 h -6 -6 v 12 12 h -10 -10 z m 420,-96 v -28 h -10 -10 v -14 -14 h 10 10 v -14 -14 h -16 -16 v 28 28 h 4 4 v 12 12 h -2 -2 v 2 2 h -2 -2 v 14 14 h 16 16 z m 164,12 v -16 h 2 2 v -12 -12 h -10 -10 v 12 12 h 2 2 v 16 16 h 6 6 z m 88,-40 v -56 h 34 34 v -14 -14 h -46 -46 v 2 2 h -2 -2 v 12 12 h 6 6 v 14 14 h 2 2 v -14 -14 h 2 2 v 56 56 h 4 4 z m 12,40 v -16 h -2 -2 v 16 16 h 2 2 z m 64,0 v -16 h -2 -2 v 2 2 h -2 -2 v 14 14 h 4 4 z m 8,0 v -16 h -2 -2 v 16 16 h 2 2 z m 24,14 v -2 h 2 2 v -12 -12 h -2 -2 v -2 -2 h -4 -4 v 16 16 h 4 4 z m 108,0 v -2 h 2 2 v -12 -12 h -2 -2 v -2 -2 h -2 -2 v 16 16 h 2 2 z m -600,-42 v -12 h 46 46 v -12 -12 h -2 -2 v -2 -2 h -44 -44 v -26 -26 h -4 -4 v 24 24 h 2 2 v 2 2 h -2 -2 v 2 2 h -2 -2 v -2 -2 h -164 -164 v 2 2 h -2 -2 v 12 12 h 170 170 v 4 4 h -2 -2 v 8 8 h 4 4 z m 600,-26 v -14 h -28 -28 v 2 2 h -2 -2 v 12 12 h 30 30 z m -376,-28 v -14 h -18 -18 v 14 14 h 18 18 z m 72,0 v -14 h -2 -2 v -12 -12 h -4 -4 v 12 12 h -2 -2 v 14 14 h 8 8 z m 48,-16 v -2 h 2 2 v -10 -10 h -2 -2 v -2 -2 h -2 -2 v 2 2 h -2 -2 v 12 12 h 4 4 z m 240,0 v -2 h 2 2 v -10 -10 h -2 -2 v -2 -2 h -62 -62 v 14 14 h 62 62 z m -420,-40 v -14 h -28 -28 v 14 14 h 28 28 z m -192,222 v -12 h 4 4 v 12 12 h -4 -4 z m 48,0 v -12 h 2 2 v 12 12 h -2 -2 z m 20,0 v -12 h 2 2 v 12 12 h -2 -2 z m -900,-68 v -56 h 56 56 v 12 12 h 4 4 v -12 -12 h 8 8 v 12 12 h 6 6 v 16 16 h 8 8 v -28 -28 h 88 88 v 12 12 h -2 -2 v 2 2 h -2 -2 v 14 14 h -4 -4 v -16 -16 h -2 -2 v 2 2 h -2 -2 v 14 14 h -60 -60 v 12 12 h -24 -24 v -12 -12 h -12 -12 v 12 12 h -38 -38 v 16 16 h -24 -24 z m -1672,12 v -12 h 2 2 v 12 12 h -2 -2 z m 8,0 v -12 h 20 20 v 10 10 h 2 2 v 2 2 h -22 -22 z m 292,0 v -12 h 2 2 v 12 12 h -2 -2 z m 36,0 v -12 h 6 6 v 12 12 h -6 -6 z m 3052,0 v -12 h 4 4 v 12 12 h -4 -4 z m 48,0 v -12 h 2 2 v 12 12 h -2 -2 z m 40,0 v -12 h 10 10 v 12 12 h -10 -10 z m 40,0 v -12 h 4 4 v 12 12 h -4 -4 z M 44,284 v -16 h 54 54 v 16 16 H 98 44 Z m 256,0 v -16 h 30 30 v 16 16 h -30 -30 z m 776,0 v -16 h 20 20 v 16 16 h -20 -20 z m 44,0 v -16 h 34 34 v 16 16 h -34 -34 z m 644,0 v -16 h 48 48 v 16 16 h -48 -48 z m 104,0 v -16 h 6 6 v 2 2 h 2 2 v 2 2 h -2 -2 v 8 8 h 2 2 v 2 2 h -2 -2 v 2 2 h -6 -6 z m 108,14 v -2 h -2 -2 v -12 -12 h 2 2 v -2 -2 h 100 100 v 2 2 h 2 2 v 12 12 h -2 -2 v 2 2 h -100 -100 z m 240,0 v -2 h -2 -2 v -12 -12 h 2 2 v -2 -2 h 138 138 v 2 2 h 2 2 v 14 14 h -140 -140 z m 600,-14 v -16 h 2 2 v 16 16 h -2 -2 z m 604,-28 v -12 h 2 2 v 12 12 h -2 -2 z M 44,230 v -14 h 2 2 v -14 -14 h 46 46 v 14 14 h -4 -4 v 14 14 H 88 44 Z m 260,2 v -12 h 2 2 v -2 -2 h 6 6 v -14 -14 h -12 -12 v -2 -2 h -2 -2 v -2 -2 h 2 2 v -6 -6 h -2 -2 v -2 -2 h 2 2 v -2 -2 h 80 80 v -14 -14 h 4 4 v 14 14 h 4 4 v -26 -26 h 2 2 v -2 -2 H 706 936 V 90 76 h -34 -34 v -2 -2 h -2 -2 V 62 52 h 2 2 v -2 -2 h 124 124 v 14 14 h -34 -34 v 14 14 h 34 34 v 14 14 h -6 -6 v 14 14 h -4 -4 v -14 -14 h -26 -26 v 14 14 h -26 -26 V 146 132 H 878 764 v 14 14 h -20 -20 v -14 -14 h -62 -62 v 14 14 h 8 8 v 14 14 h -16 -16 v -14 -14 h -20 -20 v -14 -14 h -6 -6 v 4 4 h 2 2 v 10 10 h -24 -24 v 14 14 h -2 -2 v 14 14 h 4 4 v -14 -14 h 26 26 v 14 14 h 8 8 v -14 -14 h 4 4 v 14 14 h 40 40 v -14 -14 h 2 2 v 14 14 h 4 4 v 14 14 H 482 304 Z m 52,-14 v -2 h 2 2 v -14 -14 h -4 -4 v 16 16 h 2 2 z m 120,-14 v -16 h -4 -4 v 14 14 h 2 2 v 2 2 h 2 2 z m -92,-2 v -14 h -10 -10 v 14 14 h 10 10 z m 24,0 v -14 h -8 -8 v 14 14 h 8 8 z m 56,0 v -14 h -22 -22 v 14 14 h 22 22 z m 204,14 v -28 h 30 30 v 14 14 h -2 -2 v 14 14 h -14 -14 v -14 -14 h -4 -4 v 14 14 h -6 -6 v -14 -14 h -2 -2 v 14 14 h -2 -2 z m 868,0 v -28 h 2 2 v 28 28 h -2 -2 z m 244,14 v -14 h 40 40 v 14 14 h -40 -40 z m 116,2 v -12 h 2 2 v -2 -2 h 8 8 v -14 -14 h 132 132 v 14 14 h -2 -2 v 2 2 h -2 -2 v 12 12 h -138 -138 z m 368,-2 v -14 h -12 -12 v -14 -14 h 88 88 v 14 14 h 4 4 v -14 -14 h 60 60 v -12 -12 h 2 2 v -2 -2 h 358 358 v 14 14 h -88 -88 v 28 28 h -6 -6 v -14 -14 h -4 -4 v 12 12 h -2 -2 v 2 2 h -8 -8 v -2 -2 h -2 -2 v -2 -2 h 2 2 v -8 -8 h -2 -2 v -2 -2 h -4 -4 v 14 14 h -4 -4 v -2 -2 h -2 -2 v -10 -10 h -2 -2 v 12 12 h -2 -2 v -12 -12 h -2 -2 v 10 10 h -2 -2 v 2 2 h -2 -2 v -14 -14 h -6 -6 v 2 2 h -2 -2 v 2 2 h 2 2 v 8 8 h -2 -2 v 2 2 h -2 -2 v -14 -14 h -98 -98 v 2 2 h -2 -2 v 12 12 h -2 -2 v -14 -14 h -12 -12 v 14 14 h -6 -6 v -14 -14 h -4 -4 v 14 14 h -6 -6 v -14 -14 h -60 -60 v 2 2 h -2 -2 v 12 12 h -142 -142 v -14 -14 h -2 -2 v 14 14 h -24 -24 z m 832,2 v -12 h 4 4 v 12 12 h -4 -4 z m 16,0 v -12 h 2 2 v 12 12 h -2 -2 z m 28,10 v -2 h -2 -2 v -10 -10 h 4 4 v 12 12 h -2 -2 z M 732,202 v -14 h 4 4 v 14 14 h -4 -4 z m 28,0 v -14 h 22 22 v 14 14 h -22 -22 z m 2576,-42 v -28 h 4 4 v 16 16 h 2 2 v 12 12 h -6 -6 z m 16,16 v -12 h 2 2 v -2 -2 h 20 20 v 2 2 h 2 2 v 10 10 h -2 -2 v 2 2 h -22 -22 z m 96,0 v -12 h 2 2 v -2 -2 h 62 62 v -14 -14 h -14 -14 v -14 -14 h 14 14 v 14 14 h 6 6 v -14 -14 h 12 12 v 28 28 h -6 -6 v 2 2 h -2 -2 v 12 12 h -74 -74 z M 1128,146 v -14 h -2 -2 v -2 -2 h -2 -2 v -10 -10 h 2 2 v -2 -2 h 8 8 v 14 14 h -2 -2 v 14 14 h -4 -4 z m 24,0 v -14 h -2 -2 v -14 -14 h 8 8 v -2 -2 h -2 -2 V 90 80 h 2 2 v -2 -2 h -20 -20 v -2 -2 h -2 -2 V 62 52 h 2 2 v -2 -2 h 60 60 V 34 20 h -22 -22 v -2 -2 h -2 -2 V 8 0 h 54 54 v 10 10 h -28 -28 v 14 14 h 62 62 v 14 14 h -20 -20 v 16 16 h 2 2 v 12 12 h -82 -82 v 14 14 h -10 -10 z m 40,-56 V 76 h -2 -2 v 14 14 h 2 2 z m 68,0 V 76 h -4 -4 v 14 14 h 4 4 z m 52,0 V 76 h -4 -4 v 14 14 h 4 4 z m -880,28 v -14 h 2 2 v 14 14 h -2 -2 z m 908,2 v -12 h 2 2 v -2 -2 h 8 8 v 14 14 h -10 -10 z m 28,-2 v -14 h 62 62 V 90 76 h 4 4 v 14 14 h 14 14 v 14 14 h -80 -80 z m 888,-14 V 76 h 4 4 v 14 14 h 6 6 V 90 76 h 4 4 v 14 14 h -2 -2 v 14 14 h -12 -12 z m 32,26 v -2 h -2 -2 v -10 -10 h 2 2 v -2 -2 h 2 2 V 90 76 h 2 2 v 14 14 h 4 4 V 90 76 h 4 4 v 14 14 h 4 4 V 90 76 h 20 20 v 14 14 h 12 12 v 2 2 h 2 2 v 12 12 h -50 -50 z m 104,-12 v -14 h 38 38 v 14 14 h -38 -38 z m 84,0 v -14 h 14 14 v 14 14 h -14 -14 z m 40,0 v -14 h 4 4 v 14 14 h -4 -4 z m 32,12 v -2 h -2 -2 v -10 -10 h 2 2 v -2 -2 h 6 6 v 14 14 h -6 -6 z m 20,-12 v -14 h 8 8 v 2 2 h 2 2 v 10 10 h -2 -2 v 2 2 h -8 -8 z m 72,12 v -2 h -2 -2 v -10 -10 h 2 2 v -2 -2 h 4 4 v 14 14 h -4 -4 z m 12,-10 v -12 h 2 2 v -2 -2 h 8 8 v 14 14 h -10 -10 z m 44,10 v -2 h -2 -2 v -10 -10 h 4 4 v 12 12 h -2 -2 z m 12,-10 v -12 h 4 4 v 10 10 h -2 -2 v 2 2 h -2 -2 z m 12,-2 v -14 h 4 4 v 14 14 h -4 -4 z m 16,0 v -14 h 4 4 v 14 14 h -4 -4 z m 24,0 v -14 h 2 2 v 14 14 h -2 -2 z m 12,0 v -14 h 2 2 v 14 14 h -2 -2 z m 192,0 v -14 h 2 2 v 14 14 h -2 -2 z m 68,0 v -14 h 22 22 v 14 14 h -22 -22 z m 64,2 v -12 h 2 2 v -2 -2 h 82 82 v 14 14 h -84 -84 z m 776,0 v -12 h 2 2 v -2 -2 h 2 2 v 2 2 h 2 2 v 12 12 h -6 -6 z M 1560,90 V 76 h 188 188 v 14 14 h -188 -188 z m 384,0 V 76 h 2 2 v 14 14 h -2 -2 z m 8,0 V 76 h 6 6 v 14 14 h -6 -6 z m 16,0 V 76 h 10 10 v 14 14 h -10 -10 z m 28,0 V 76 h 2 2 v 14 14 h -2 -2 z m 140,0 V 76 h 14 14 v 14 14 h -14 -14 z M 508,62 V 48 h -2 -2 V 34 20 h 2 2 V 10 0 h 118 118 v 10 10 h -14 -14 v 2 2 h 2 2 v 12 12 h -4 -4 V 34 20 h -82 -82 v 14 14 h -2 -2 V 34 20 h -6 -6 v 4 4 h 2 2 v 10 10 h -10 -10 v 2 2 h -2 -2 v 12 12 h -2 -2 z m 52,0 V 48 h 2 2 v 14 14 h -2 -2 z m 16,0 V 48 h 2 2 v 14 14 h -2 -2 z m 112,0 V 48 h 2 2 v 14 14 h -2 -2 z m 8,2 V 52 h 4 4 v 12 12 h -4 -4 z m 700,-2 V 48 h 2 2 v 2 2 h 2 2 v 10 10 h -2 -2 v 2 2 h -2 -2 z m 3148,12 v -2 h -2 -2 V 62 52 h 2 2 v -2 -2 h 32 32 v 14 14 h -32 -32 z m 72,0 v -2 h -2 -2 V 46 20 h -38 -38 V 10 0 h 130 130 v 10 10 h -88 -88 v 14 14 h 8 8 v 2 2 h 2 2 v 12 12 h -12 -12 z m 28,-12 V 48 h 206 206 v 14 14 h -206 -206 z m 424,0 V 48 h 26 26 v 14 14 h -26 -26 z M 800,34 V 20 H 782 764 V 10 0 h 112 112 v 10 10 h -92 -92 v 14 14 h -2 -2 z m 1596,0 V 20 h 4 4 v 14 14 h -4 -4 z m 20,0 V 20 h 4 4 v 14 14 h -4 -4 z m 32,0 V 20 h 4 4 v 2 2 h -2 -2 v 10 10 h 2 2 v 2 2 h -4 -4 z m 32,0 V 20 h 2 2 v 14 14 h -2 -2 z m 8,0 V 20 h 4 4 v 14 14 h -4 -4 z m 16,0 V 20 h 6 6 v 14 14 h -6 -6 z m 16,0 V 20 h 8 8 v 14 14 h -8 -8 z m 20,0 V 20 h 2 2 v 14 14 h -2 -2 z m 56,0 V 20 h 2 2 v 14 14 h -2 -2 z m 12,0 V 20 h 2 2 v 14 14 h -2 -2 z m 8,0 V 20 h 4 4 v 14 14 h -4 -4 z m 16,0 V 20 h 2 2 v 14 14 h -2 -2 z m 12,0 V 20 h 4 4 v 14 14 h -4 -4 z m 36,0 V 20 h 2 2 v 14 14 h -2 -2 z m 12,0 V 20 h 4 4 v 14 14 h -4 -4 z m 36,0 V 20 h 4 4 v 14 14 h -4 -4 z m 16,0 V 20 h 2 2 v 14 14 h -2 -2 z m 12,0 V 20 h 2 2 v 14 14 h -2 -2 z m 28,0 V 20 h 12 12 v 14 14 h -12 -12 z m 32,0 V 20 h 2 2 v 14 14 h -2 -2 z m 16,0 V 20 h 2 2 v 14 14 h -2 -2 z m 24,0 V 20 h 6 6 v 14 14 h -6 -6 z m 16,0 V 20 h 2 2 v 14 14 h -2 -2 z m 20,0 V 20 h 4 4 v 2 2 h -2 -2 v 10 10 h 2 2 v 2 2 h -4 -4 z m 12,0 V 20 h 4 4 v 14 14 h -4 -4 z m 20,0 V 20 h 2 2 v 14 14 h -2 -2 z m 8,0 V 20 h 4 4 v 14 14 h -4 -4 z m 20,0 V 20 h 4 4 v 14 14 h -4 -4 z M 1008,10 V 0 h 44 44 v 10 10 h -44 -44 z m 128,0 V 0 h 20 20 v 10 10 h -20 -20 z m 48,0 V 0 h 4 4 v 10 10 h -4 -4 z m 128,0 V 0 h 12 12 v 10 10 h -12 -12 z m 28,0 V 0 h 20 20 v 10 10 h -20 -20 z m 48,0 V 0 h 70 70 v 10 10 h -70 -70 z m 2676,8 v -2 h -2 -2 v -2 -2 h 2 2 V 8 4 h -2 -2 V 2 0 h 60 60 v 10 10 h -58 -58 z m 164,0 v -2 h -2 -2 V 8 0 h 8 8 v 10 10 h -6 -6 z m 44,-8 V 0 h 8 8 v 8 8 h -2 -2 v 2 2 h -6 -6 z m 20,0 V 0 h 26 26 v 8 8 h -2 -2 v 2 2 h -24 -24 z m 124,8 v -2 h -2 -2 v -2 -2 h 2 2 V 8 4 h -2 -2 V 2 0 h 4 4 v 10 10 h -2 -2 z"
       id="path1" />
  </g>
</svg>
